<svg xmlns="http://www.w3.org/2000/svg" viewBox="0 0 50 50" >
<style type="text/css">
	.st0{fill:#46B3B3;}
	.st1{fill:#FFFFFF;}
</style>
<g>
	<g>
		<path class="st0" d="M50,28.3l-10,0c-1.1,0-2.4-0.7-2.4-2v-2.6c0-1.4,1.2-2,2.4-2h10V10.2H39.8v0.3c0,5.8-3.5,10.6-10.5,10.6h-0.4
			v7.6l0.4,0c7,0,10.5,4.8,10.5,10.6l0,0.3l10.2,0L50,28.3z"/>
		<path class="st0" d="M21.3,28.7l0-7.6h-0.4c-7,0-10.5-4.8-10.5-10.6v-0.3L0,10.2l0,11.4h10.2c1.1,0,2.4,0.7,2.4,2v2.6
			c0,1.4-1.2,2-2.4,2H0l0,11.4h10.4l0-0.3c0-5.8,3.5-10.6,10.5-10.6L21.3,28.7z"/>
	</g>
	<g>
		<path class="st0" d="M39.5,39.6c-5.8,0-10.6-3.5-10.6-10.5v-0.4l-7.6,0v0.4c0,7-4.8,10.5-10.6,10.5h-0.3V50l11.4,0l0-10.2
			c0-1.1,0.7-2.4,2-2.4h2.6c1.4,0,2,1.2,2,2.4V50h11.4V39.6L39.5,39.6z"/>
		<path class="st0" d="M21.3,20.8l0,0.4h7.6l0-0.4c0-7,4.8-10.5,10.6-10.5h0.3l0-10.2H28.4v10c0,1.1-0.7,2.4-2,2.4h-2.6
			c-1.4,0-2-1.2-2-2.4V0H10.4l0,10.2l0.3,0C16.5,10.2,21.3,13.7,21.3,20.8z"/>
	</g>
	<g>
		<path class="st1" d="M39.8,39.3c0-5.8-3.5-10.6-10.5-10.6l-0.4,0v0.4c0,7,4.8,10.5,10.6,10.5l0.3,0L39.8,39.3z"/>
		<path class="st1" d="M10.4,39.3l0,0.3h0.3c5.8,0,10.6-3.5,10.6-10.5v-0.4l-0.4,0C13.9,28.7,10.4,33.5,10.4,39.3z"/>
		<path class="st1" d="M39.8,10.5v-0.3h-0.3c-5.8,0-10.6,3.5-10.6,10.5v0.4h0.4C36.3,21.1,39.8,16.4,39.8,10.5z"/>
		<path class="st1" d="M10.7,10.2h-0.3v0.3c0,5.8,3.5,10.6,10.5,10.6h0.4l0-0.4C21.3,13.7,16.5,10.2,10.7,10.2z"/>
	</g>
</g>
</svg>
