<?xml version="1.0" encoding="utf-8"?>
<!-- Generator: Adobe Illustrator 26.1.0, SVG Export Plug-In . SVG Version: 6.00 Build 0)  -->
<svg version="1.1" id="Capa_1" xmlns="http://www.w3.org/2000/svg" xmlns:xlink="http://www.w3.org/1999/xlink" x="0px" y="0px"
	 viewBox="0 0 200 74.2" style="enable-background:new 0 0 200 74.2;" xml:space="preserve">
<style type="text/css">
	
		.st0{clip-path:url(#SVGID_00000132799277550416799390000004308476347893843638_);fill:url(#SVGID_00000115508039817480757690000014550583942475051168_);}
	
		.st1{clip-path:url(#SVGID_00000111176074199268929600000015031126190004790197_);fill:url(#SVGID_00000120541014655563623100000012209440711810382489_);}
	
		.st2{clip-path:url(#SVGID_00000161609814580245243730000015383011064101563055_);fill:url(#SVGID_00000134963551604866462930000015429021420631100061_);}
	
		.st3{clip-path:url(#SVGID_00000084530001417551680170000005998379667307040152_);fill:url(#SVGID_00000167382601993957521790000015019197768900848531_);}
	
		.st4{clip-path:url(#SVGID_00000041262346682473015940000017035352123751186109_);fill:url(#SVGID_00000176040266128795820280000006205784157880874938_);}
	
		.st5{clip-path:url(#SVGID_00000153701799867537839700000010281813069158715536_);fill:url(#SVGID_00000096742619466870712910000003787110085253744044_);}
	
		.st6{clip-path:url(#SVGID_00000002379940506139926560000014697822799029820566_);fill:url(#SVGID_00000158019443000533022960000017612547713288474798_);}
	
		.st7{clip-path:url(#SVGID_00000052827048802222988700000011072103879076120756_);fill:url(#SVGID_00000133489235425100755960000016075270922490778283_);}
	
		.st8{clip-path:url(#SVGID_00000057116563116253271110000016712499920643544714_);fill:url(#SVGID_00000010308406411612476650000002512446173979726233_);}
	
		.st9{clip-path:url(#SVGID_00000100385040123745233710000003488998153729293453_);fill:url(#SVGID_00000153704985638734262740000012692673315996653728_);}
	
		.st10{clip-path:url(#SVGID_00000176004045470849838790000008323383063126496149_);fill:url(#SVGID_00000033362617718586621390000012449829214089448617_);}
	
		.st11{clip-path:url(#SVGID_00000073704477363600114660000018171767493782832309_);fill:url(#SVGID_00000023278400054018403860000016924165555368966276_);}
	.st12{clip-path:url(#SVGID_00000168802343686345894040000014582572919855912324_);}
	.st13{fill:#FFFFFF;}
	.st14{opacity:0.42;}
	.st15{opacity:0.29;clip-path:url(#SVGID_00000066508993086334720040000014324758593409305786_);}
	.st16{clip-path:url(#SVGID_00000132793209855096747650000013856604495797365896_);}
	
		.st17{clip-path:url(#SVGID_00000066508993086334720040000014324758593409305786_);fill:none;stroke:#1E1E1C;stroke-width:0.5458;stroke-miterlimit:10;}
	.st18{opacity:0.29;}
	.st19{clip-path:url(#SVGID_00000159446503188710796350000003939995719329702018_);}
	.st20{fill:none;stroke:#FFFFFF;stroke-width:0.5458;stroke-miterlimit:10;}
	.st21{opacity:0.29;clip-path:url(#SVGID_00000101064099157874840490000006239725579529664417_);}
	.st22{clip-path:url(#SVGID_00000168830224455995218630000006865327450351367325_);}
	
		.st23{clip-path:url(#SVGID_00000101064099157874840490000006239725579529664417_);fill:none;stroke:#1E1E1C;stroke-width:0.5458;stroke-miterlimit:10;}
	.st24{clip-path:url(#SVGID_00000114777816536378483520000001690888434249233052_);}
</style>
<g>
	<g>
		<defs>
			<path id="SVGID_1_" d="M2.6,0C1.2,0,0.1,1.1,0.1,2.5v69.1c0,1.4,1.1,2.5,2.5,2.5h194.9c1.4,0,2.5-1.1,2.5-2.5V2.5
				c0-1.4-1.1-2.5-2.5-2.5H2.6z"/>
		</defs>
		<clipPath id="SVGID_00000165923568081640095060000013904363807622714275_">
			<use xlink:href="#SVGID_1_"  style="overflow:visible;"/>
		</clipPath>
		
			<linearGradient id="SVGID_00000126292942263754327950000015879607431308291751_" gradientUnits="userSpaceOnUse" x1="-201.981" y1="434.8101" x2="-201.3121" y2="434.8101" gradientTransform="matrix(0.3595 -99.3367 -99.3367 -0.3595 43365.1797 -19836.8027)">
			<stop  offset="0" style="stop-color:#213C74"/>
			<stop  offset="0.5013" style="stop-color:#326BB2"/>
			<stop  offset="0.9715" style="stop-color:#213C74"/>
			<stop  offset="1" style="stop-color:#213C74"/>
		</linearGradient>
		
			<polygon style="clip-path:url(#SVGID_00000165923568081640095060000013904363807622714275_);fill:url(#SVGID_00000126292942263754327950000015879607431308291751_);" points="
			-0.2,74.2 0.1,-0.7 200.4,0 200.1,74.9 		"/>
	</g>
	<g>
		<defs>
			<path id="SVGID_00000160889296758400567460000002282541360653689989_" d="M17.9,19.3c-0.4,0-0.8,0.4-0.8,0.8v34.8
				c0,0.4,0.4,0.8,0.8,0.8h37.7c0.4,0,0.8-0.4,0.8-0.8V20.1c0-0.4-0.4-0.8-0.8-0.8H17.9z"/>
		</defs>
		<clipPath id="SVGID_00000164479239337066234830000013947479625194131336_">
			<use xlink:href="#SVGID_00000160889296758400567460000002282541360653689989_"  style="overflow:visible;"/>
		</clipPath>
		
			<linearGradient id="SVGID_00000165939578592397475990000016432907393568488866_" gradientUnits="userSpaceOnUse" x1="-204.8534" y1="439.3008" x2="-204.1845" y2="439.3008" gradientTransform="matrix(58.7059 0 0 -58.7059 12043.207 25827.0273)">
			<stop  offset="0" style="stop-color:#213C74"/>
			<stop  offset="0.4134" style="stop-color:#213C74"/>
			<stop  offset="0.5013" style="stop-color:#326BB2"/>
			<stop  offset="0.5951" style="stop-color:#213C74"/>
			<stop  offset="1" style="stop-color:#213C74"/>
		</linearGradient>
		
			<rect x="17.1" y="19.3" style="clip-path:url(#SVGID_00000164479239337066234830000013947479625194131336_);fill:url(#SVGID_00000165939578592397475990000016432907393568488866_);" width="39.3" height="36.3"/>
	</g>
	<g>
		<defs>
			<path id="SVGID_00000092448632413010196220000007617900245806763927_" d="M38.8,50.1c2.8-1.2,4.8-3.1,6.2-5.7c1,2.3,1.4,5,1.6,8
				C43.6,52.1,40.9,51.5,38.8,50.1 M22.9,45.9c1.2-3.9,3.7-6.7,8.8-7.4c0,4.3,0.8,7.7,2.3,10.4c-0.8,0.1-1.6,0.1-2.4,0.1
				c0,0-0.1,0-0.1,0C27.5,49,24.7,47.8,22.9,45.9 M34.5,40.3c0-0.7,0-1.3,0.1-1.9c3.9,0,6.6,1.2,8.4,3c-1,3.2-2.8,5.7-6.2,6.9
				C35.3,46.4,34.4,43.9,34.5,40.3 M44,28.6v3.2c0,1.7,0,3.4-0.2,5c-2.2-0.8-4.8-1.2-7.6-1.2c-0.4,0-0.8,0-1.2,0
				C36.4,31.4,39.8,29.4,44,28.6 M6.1,67.7h61.6V6.1H6.1V67.7z"/>
		</defs>
		<clipPath id="SVGID_00000092419676178478407600000001537051920959244451_">
			<use xlink:href="#SVGID_00000092448632413010196220000007617900245806763927_"  style="overflow:visible;"/>
		</clipPath>
		
			<linearGradient id="SVGID_00000129893532603182627710000006847572991671508922_" gradientUnits="userSpaceOnUse" x1="-204.8215" y1="431.4001" x2="-204.1526" y2="431.4001" gradientTransform="matrix(-92.1426 0 0 92.1426 -18805.0625 -39713.4102)">
			<stop  offset="0" style="stop-color:#D81B22"/>
			<stop  offset="1.298200e-07" style="stop-color:#D81B22"/>
			<stop  offset="0.5023" style="stop-color:#641910"/>
			<stop  offset="1" style="stop-color:#D71C24"/>
		</linearGradient>
		
			<rect x="6.1" y="6.1" style="clip-path:url(#SVGID_00000092419676178478407600000001537051920959244451_);fill:url(#SVGID_00000129893532603182627710000006847572991671508922_);" width="61.6" height="61.6"/>
	</g>
	<g>
		<defs>
			<path id="SVGID_00000003091766191802572710000008792234709243491515_" d="M22.1,50.5c2.2,0.8,4.8,1.2,7.6,1.2
				c2.2,0,4.3-0.2,6.1-0.6c-0.6-0.7-1.2-1.4-1.7-2.3c-0.8,0.1-1.6,0.1-2.4,0.1c-4.1,0-6.8-1.2-8.7-3.1
				C22.5,47.3,22.2,48.9,22.1,50.5"/>
		</defs>
		<clipPath id="SVGID_00000106866901224066695280000011976166577289724332_">
			<use xlink:href="#SVGID_00000003091766191802572710000008792234709243491515_"  style="overflow:visible;"/>
		</clipPath>
		
			<linearGradient id="SVGID_00000138543151965589328430000007008108767421086868_" gradientUnits="userSpaceOnUse" x1="-204.6985" y1="448.6429" x2="-204.0296" y2="448.6429" gradientTransform="matrix(20.3958 0 0 -20.3958 4197.0718 9199.2266)">
			<stop  offset="0" style="stop-color:#FDFCFD"/>
			<stop  offset="7.035420e-04" style="stop-color:#FDFCFD"/>
			<stop  offset="0.9986" style="stop-color:#CFCECF"/>
			<stop  offset="1" style="stop-color:#CFCECF"/>
		</linearGradient>
		
			<rect x="22.1" y="45.9" style="clip-path:url(#SVGID_00000106866901224066695280000011976166577289724332_);fill:url(#SVGID_00000138543151965589328430000007008108767421086868_);" width="13.6" height="5.8"/>
	</g>
	<g>
		<defs>
			<path id="SVGID_00000105409011349349993350000013708406464417401263_" d="M36.7,48.2c0.6,0.7,1.3,1.3,2.1,1.9
				c2.8-1.2,4.8-3.1,6.2-5.7c-0.5-1.2-1.2-2.2-2-3.1C42,44.6,40.2,47.1,36.7,48.2"/>
		</defs>
		<clipPath id="SVGID_00000157297901314947567590000014217122859727999370_">
			<use xlink:href="#SVGID_00000105409011349349993350000013708406464417401263_"  style="overflow:visible;"/>
		</clipPath>
		
			<linearGradient id="SVGID_00000083779973401408646130000010625170355753095319_" gradientUnits="userSpaceOnUse" x1="-205.0902" y1="457.8123" x2="-204.4213" y2="457.8123" gradientTransform="matrix(12.3181 0 0 -12.3181 2563.0696 5685.1069)">
			<stop  offset="0" style="stop-color:#FDFCFD"/>
			<stop  offset="7.035420e-04" style="stop-color:#FDFCFD"/>
			<stop  offset="0.9986" style="stop-color:#CFCECF"/>
			<stop  offset="1" style="stop-color:#CFCECF"/>
		</linearGradient>
		
			<rect x="36.7" y="41.4" style="clip-path:url(#SVGID_00000157297901314947567590000014217122859727999370_);fill:url(#SVGID_00000083779973401408646130000010625170355753095319_);" width="8.2" height="8.7"/>
	</g>
	<g>
		<defs>
			<path id="SVGID_00000160175724597071410590000007726586387612593848_" d="M44,28.6v3.2c0,1.7,0,3.4-0.2,5c1.1,0.4,2.1,0.9,3,1.4
				c0.2-1.3,0.3-2.6,0.3-4.1v-6C46,28.3,45,28.4,44,28.6"/>
		</defs>
		<clipPath id="SVGID_00000170279802564667872490000008062338775760841370_">
			<use xlink:href="#SVGID_00000160175724597071410590000007726586387612593848_"  style="overflow:visible;"/>
		</clipPath>
		
			<linearGradient id="SVGID_00000082365123059475999060000010450299306248589492_" gradientUnits="userSpaceOnUse" x1="-205.9351" y1="491.6363" x2="-205.2662" y2="491.6363" gradientTransform="matrix(4.921 0 0 -4.921 1057.2098 2452.5623)">
			<stop  offset="0" style="stop-color:#FDFCFD"/>
			<stop  offset="7.035420e-04" style="stop-color:#FDFCFD"/>
			<stop  offset="0.9986" style="stop-color:#CFCECF"/>
			<stop  offset="1" style="stop-color:#CFCECF"/>
		</linearGradient>
		
			<rect x="43.8" y="28.2" style="clip-path:url(#SVGID_00000170279802564667872490000008062338775760841370_);fill:url(#SVGID_00000082365123059475999060000010450299306248589492_);" width="3.3" height="10.1"/>
	</g>
	<g>
		<defs>
			<path id="SVGID_00000125574010523314961310000001844834878948950163_" d="M11.7,6.1c0.1,1.1,0.2,6,0.2,7.6v22.4
				c0,6.1,3.2,10.4,7.2,12.9c0.3-2.4,0.9-4.5,1.9-6.2c-1.3-2.9-1.6-6.6-1.6-10.5V13.7c0-1.6,0-6.5,0.2-7.6H11.7z"/>
		</defs>
		<clipPath id="SVGID_00000001627482863353024610000007333470071812154254_">
			<use xlink:href="#SVGID_00000125574010523314961310000001844834878948950163_"  style="overflow:visible;"/>
		</clipPath>
		
			<linearGradient id="SVGID_00000003815760570633598420000010174245214387710623_" gradientUnits="userSpaceOnUse" x1="-204.1828" y1="454.6087" x2="-203.5139" y2="454.6087" gradientTransform="matrix(13.8316 0 0 -13.8316 2835.8391 6315.5347)">
			<stop  offset="0" style="stop-color:#FDFCFD"/>
			<stop  offset="7.035420e-04" style="stop-color:#FDFCFD"/>
			<stop  offset="0.9986" style="stop-color:#CFCECF"/>
			<stop  offset="1" style="stop-color:#CFCECF"/>
		</linearGradient>
		
			<rect x="11.7" y="6.1" style="clip-path:url(#SVGID_00000001627482863353024610000007333470071812154254_);fill:url(#SVGID_00000003815760570633598420000010174245214387710623_);" width="9.3" height="42.9"/>
	</g>
	<g>
		<defs>
			<path id="SVGID_00000108991236202503626330000002125111378984554368_" d="M43.8,6.1c0.1,1.1,0.2,6,0.2,7.6v8c1-0.2,2-0.2,3.1-0.3
				v-7.7c0-1.6,0-6.5,0.2-7.6H43.8z"/>
		</defs>
		<clipPath id="SVGID_00000012456093396511965700000010530665966149704854_">
			<use xlink:href="#SVGID_00000108991236202503626330000002125111378984554368_"  style="overflow:visible;"/>
		</clipPath>
		
			<linearGradient id="SVGID_00000114767953178297142130000008890066796449599882_" gradientUnits="userSpaceOnUse" x1="-205.9075" y1="487.8274" x2="-205.2386" y2="487.8274" gradientTransform="matrix(5.093 0 0 -5.093 1092.5172 2498.3528)">
			<stop  offset="0" style="stop-color:#FDFCFD"/>
			<stop  offset="7.035420e-04" style="stop-color:#FDFCFD"/>
			<stop  offset="0.9986" style="stop-color:#CFCECF"/>
			<stop  offset="1" style="stop-color:#CFCECF"/>
		</linearGradient>
		
			<rect x="43.8" y="6.1" style="clip-path:url(#SVGID_00000012456093396511965700000010530665966149704854_);fill:url(#SVGID_00000114767953178297142130000008890066796449599882_);" width="3.4" height="15.5"/>
	</g>
	<g>
		<defs>
			<path id="SVGID_00000129204292242391373290000000901513039788240262_" d="M46.6,67.7h7.7V55.7h-5.1c-0.9,0-1.7,0-2.6-0.1V67.7z"
				/>
		</defs>
		<clipPath id="SVGID_00000137091147492099156610000012651515273211017406_">
			<use xlink:href="#SVGID_00000129204292242391373290000000901513039788240262_"  style="overflow:visible;"/>
		</clipPath>
		
			<linearGradient id="SVGID_00000009580918099200711050000010869455247688777882_" gradientUnits="userSpaceOnUse" x1="-205.5204" y1="460.16" x2="-204.8515" y2="460.16" gradientTransform="matrix(11.4991 0 0 -11.4991 2409.8901 5353.0703)">
			<stop  offset="0" style="stop-color:#FDFCFD"/>
			<stop  offset="7.035420e-04" style="stop-color:#FDFCFD"/>
			<stop  offset="0.9986" style="stop-color:#CFCECF"/>
			<stop  offset="1" style="stop-color:#CFCECF"/>
		</linearGradient>
		
			<rect x="46.6" y="55.6" style="clip-path:url(#SVGID_00000137091147492099156610000012651515273211017406_);fill:url(#SVGID_00000009580918099200711050000010869455247688777882_);" width="7.7" height="12.2"/>
	</g>
	<g>
		<defs>
			<path id="SVGID_00000111912497023900945870000014542098734564508832_" d="M35.1,35.7c-0.3,0.8-0.4,1.7-0.5,2.7
				c3.9,0,6.6,1.2,8.4,3c0.8,0.9,1.5,1.9,2,3.1c1,2.3,1.4,5,1.6,8c1.6,0.1,3.3,0.2,5,0.2h2.7V51c0-6-3.4-10.2-7.4-12.7
				c-0.9-0.6-1.9-1-3-1.4c-2.2-0.8-4.8-1.2-7.6-1.2C35.8,35.6,35.4,35.7,35.1,35.7"/>
		</defs>
		<clipPath id="SVGID_00000154400880633970181940000006447936715874456248_">
			<use xlink:href="#SVGID_00000111912497023900945870000014542098734564508832_"  style="overflow:visible;"/>
		</clipPath>
		
			<linearGradient id="SVGID_00000167371658604513344180000011180506256672880555_" gradientUnits="userSpaceOnUse" x1="-205.0006" y1="444.1858" x2="-204.3317" y2="444.1858" gradientTransform="matrix(29.5176 0 0 -29.5176 6085.6665 13155.4141)">
			<stop  offset="0" style="stop-color:#FDFCFD"/>
			<stop  offset="7.035420e-04" style="stop-color:#FDFCFD"/>
			<stop  offset="0.9986" style="stop-color:#CFCECF"/>
			<stop  offset="1" style="stop-color:#CFCECF"/>
		</linearGradient>
		
			<rect x="34.5" y="35.6" style="clip-path:url(#SVGID_00000154400880633970181940000006447936715874456248_);fill:url(#SVGID_00000167371658604513344180000011180506256672880555_);" width="19.7" height="16.9"/>
	</g>
	<g>
		<defs>
			<path id="SVGID_00000000194680600871882580000014471421164225396105_" d="M20.9,42.8C20,44.5,19.3,46.6,19,49
				c-0.2,1.2-0.2,2.5-0.2,3.8v14.9h3.1V55.2c0-1.6,0-3.2,0.2-4.7c0.1-1.6,0.4-3.2,0.8-4.6c1.2-3.9,3.7-6.7,8.8-7.4
				c0-0.1,0-0.1,0-0.1c0-0.8,0-1.6,0.1-2.4C26.6,36.7,23,39,20.9,42.8"/>
		</defs>
		<clipPath id="SVGID_00000034789518514181256210000010859996987065844916_">
			<use xlink:href="#SVGID_00000000194680600871882580000014471421164225396105_"  style="overflow:visible;"/>
		</clipPath>
		
			<linearGradient id="SVGID_00000018920276299942590370000004450897491006279314_" gradientUnits="userSpaceOnUse" x1="-204.6017" y1="449.3669" x2="-203.9328" y2="449.3669" gradientTransform="matrix(19.5061 0 0 -19.5061 4009.7849 8817.2354)">
			<stop  offset="0" style="stop-color:#FDFCFD"/>
			<stop  offset="7.035420e-04" style="stop-color:#FDFCFD"/>
			<stop  offset="0.9986" style="stop-color:#CFCECF"/>
			<stop  offset="1" style="stop-color:#CFCECF"/>
		</linearGradient>
		
			<rect x="18.8" y="35.9" style="clip-path:url(#SVGID_00000034789518514181256210000010859996987065844916_);fill:url(#SVGID_00000018920276299942590370000004450897491006279314_);" width="13" height="31.8"/>
	</g>
	<g>
		<defs>
			<path id="SVGID_00000123411409489606260240000015680786308408026035_" d="M47.2,20.4c-0.1,0-0.1,0-0.2,0c-1.1,0-2.1,0.1-3.1,0.3
				c-7.4,1.2-11.5,7.6-12.1,15.3c-0.1,0.8-0.1,1.6-0.1,2.4c0,0.1,0,0.1,0,0.1c0,4.3,0.8,7.7,2.3,10.4c0.5,0.8,1,1.6,1.7,2.3
				c2.5,2.6,6.1,4.1,10.9,4.5c0.8,0.1,1.7,0.1,2.6,0.1h5.1h13.4v-3.1H53.3h-1.7c-1.7,0-3.4,0-5-0.2c-3-0.3-5.7-0.9-7.7-2.3
				c-0.8-0.5-1.5-1.1-2.1-1.9c-1.5-1.8-2.3-4.4-2.3-8c0-0.7,0-1.3,0.1-1.9c0.1-1,0.3-1.9,0.5-2.7c1.3-4.3,4.7-6.2,8.9-7.1
				c1-0.2,2-0.3,3.1-0.4c1.3-0.1,2.6-0.1,3.9-0.1h16.7v-7.7H47.2z"/>
		</defs>
		<clipPath id="SVGID_00000112629440390904981810000001344943498386567103_">
			<use xlink:href="#SVGID_00000123411409489606260240000015680786308408026035_"  style="overflow:visible;"/>
		</clipPath>
		
			<linearGradient id="SVGID_00000163759825163956850580000013477296457028290952_" gradientUnits="userSpaceOnUse" x1="-204.9747" y1="439.747" x2="-204.3057" y2="439.747" gradientTransform="matrix(53.7875 0 0 -53.7875 11056.8125 23690.8828)">
			<stop  offset="0" style="stop-color:#FDFCFD"/>
			<stop  offset="7.035420e-04" style="stop-color:#FDFCFD"/>
			<stop  offset="0.9986" style="stop-color:#CFCECF"/>
			<stop  offset="1" style="stop-color:#CFCECF"/>
		</linearGradient>
		
			<rect x="31.7" y="20.4" style="clip-path:url(#SVGID_00000112629440390904981810000001344943498386567103_);fill:url(#SVGID_00000163759825163956850580000013477296457028290952_);" width="36" height="35.3"/>
	</g>
	<g>
		<g>
			<g>
				<defs>
					<rect id="SVGID_00000170971000223874340140000007377794895242290604_" x="67.8" y="5.2" width="129.6" height="36.9"/>
				</defs>
				<clipPath id="SVGID_00000019644787694802702580000004285148825953738419_">
					<use xlink:href="#SVGID_00000170971000223874340140000007377794895242290604_"  style="overflow:visible;"/>
				</clipPath>
				<g style="clip-path:url(#SVGID_00000019644787694802702580000004285148825953738419_);">
					<defs>
						<rect id="SVGID_00000049905955083638310750000001902715369387953845_" x="67.8" y="5.2" width="129.6" height="36.9"/>
					</defs>
					<clipPath id="SVGID_00000111870982203730267720000007779581748782089654_">
						<use xlink:href="#SVGID_00000049905955083638310750000001902715369387953845_"  style="overflow:visible;"/>
					</clipPath>
					<g transform="matrix(1 0 0 1 0 0)" style="clip-path:url(#SVGID_00000111870982203730267720000007779581748782089654_);">
						
							<image style="overflow:visible;" width="807" height="230" xlink:href="37EEEA05.png"  transform="matrix(0.1605 0 0 0.1605 67.7552 5.2489)">
						</image>
					</g>
				</g>
			</g>
		</g>
		<path class="st13" d="M89.2,30.4H77.9L75,36.9h-4.4L83.8,8.2l12.6,28.7H92L89.2,30.4z M87.6,26.5l-3.9-9.2l-4.1,9.2H87.6z"/>
		<path class="st13" d="M110.4,15.8c-0.2-0.6-0.6-1.2-1.2-1.7c-0.8-0.7-1.7-1-2.9-1c-2.5,0-3.7,1.5-3.7,3.3c0,0.8,0.3,2.2,2.9,3.3
			l2.7,1.1c4.9,2,6.3,4.9,6.3,8c0,5.2-3.6,8.7-8.6,8.7c-3.1,0-4.9-1.2-6.3-2.7c-1.4-1.6-2.1-3.4-2.2-5.3l4-0.9
			c0,1.3,0.5,2.6,1.1,3.5c0.8,1,1.9,1.6,3.5,1.6c2.5,0,4.4-1.8,4.4-4.6c0-2.8-2.1-3.9-3.8-4.6l-2.6-1.1c-2.2-0.9-5.4-2.8-5.4-6.9
			c0-3.7,2.8-7.2,7.8-7.2c2.9,0,4.5,1.1,5.3,1.8c0.7,0.7,1.5,1.6,2,2.7L110.4,15.8z"/>
		<path class="st13" d="M139.2,16.1c-2.9-2.7-5.7-3-7.2-3c-5.8,0-9.7,4.3-9.7,10.3c0,5.7,4.1,10.2,9.7,10.2c3.2,0,5.7-1.7,7.2-3.1
			v4.9c-2.7,1.6-5.5,2-7.3,2c-4.8,0-7.9-2.2-9.4-3.7c-3.1-3-4.3-6.4-4.3-10.2c0-5,2-8.5,4.3-10.6c2.7-2.6,5.9-3.5,9.6-3.5
			c2.4,0,4.8,0.4,7.1,2V16.1z"/>
		<path class="st13" d="M148.3,9.8v16.3c0,1.5,0,3.3,0.8,4.7c0.8,1.4,2.6,2.8,4.9,2.8c2.4,0,4.1-1.4,4.9-2.8
			c0.8-1.4,0.8-3.2,0.8-4.7V9.8h4.1v17.4c0,2.2-0.4,4.8-2.5,7c-1.4,1.5-3.7,3.2-7.4,3.2c-3.6,0-6-1.6-7.4-3.2c-2-2.3-2.5-4.9-2.5-7
			V9.8H148.3z"/>
		<polygon class="st13" points="170.3,36.9 170.3,8 189.6,28.6 189.6,9.8 193.6,9.8 193.6,38.6 174.4,18 174.4,36.9 		"/>
		<g class="st14">
			<g>
				<defs>
					<rect id="SVGID_00000013153182591770733910000006162385587801241500_" x="68.2" y="41.5" width="131.5" height="9"/>
				</defs>
				<clipPath id="SVGID_00000070093367619927595180000013758815971630988211_">
					<use xlink:href="#SVGID_00000013153182591770733910000006162385587801241500_"  style="overflow:visible;"/>
				</clipPath>
				<g style="opacity:0.29;clip-path:url(#SVGID_00000070093367619927595180000013758815971630988211_);">
					<g>
						<defs>
							<rect id="SVGID_00000163053314970531811730000012755661413111641269_" x="68.2" y="41.5" width="131.5" height="9"/>
						</defs>
						<clipPath id="SVGID_00000098217401059433007290000000151049885152273585_">
							<use xlink:href="#SVGID_00000163053314970531811730000012755661413111641269_"  style="overflow:visible;"/>
						</clipPath>
						<g style="clip-path:url(#SVGID_00000098217401059433007290000000151049885152273585_);">
							<defs>
								<rect id="SVGID_00000118377087929402927480000013351081455512874915_" x="68.2" y="41.5" width="131.5" height="9"/>
							</defs>
							<clipPath id="SVGID_00000158007334320055474650000014281442173380933535_">
								<use xlink:href="#SVGID_00000118377087929402927480000013351081455512874915_"  style="overflow:visible;"/>
							</clipPath>
							
								<g transform="matrix(1 0 0 1 0 -3.814697e-06)" style="clip-path:url(#SVGID_00000158007334320055474650000014281442173380933535_);">
								
									<image style="overflow:visible;" width="819" height="56" xlink:href="37EEEA07.png"  transform="matrix(0.1605 0 0 0.1605 68.2011 41.4958)">
								</image>
							</g>
						</g>
					</g>
				</g>
				
					<path style="clip-path:url(#SVGID_00000070093367619927595180000013758815971630988211_);fill:none;stroke:#1E1E1C;stroke-width:0.5458;stroke-miterlimit:10;" d="
					M70.4,44.1c1.4,0,123.2,0,123.2,0"/>
			</g>
		</g>
		<g class="st18">
			<g>
				<defs>
					<rect id="SVGID_00000044897014711853103800000008415984842346610841_" x="68.2" y="41.2" width="131.5" height="8.8"/>
				</defs>
				<clipPath id="SVGID_00000150799673018538979300000003704758037883043975_">
					<use xlink:href="#SVGID_00000044897014711853103800000008415984842346610841_"  style="overflow:visible;"/>
				</clipPath>
				<g style="clip-path:url(#SVGID_00000150799673018538979300000003704758037883043975_);">
					<defs>
						<rect id="SVGID_00000047750365004503713570000005710262997111563967_" x="68.2" y="41.2" width="131.5" height="8.8"/>
					</defs>
					<clipPath id="SVGID_00000012473903172714874970000006366624699170642307_">
						<use xlink:href="#SVGID_00000047750365004503713570000005710262997111563967_"  style="overflow:visible;"/>
					</clipPath>
					<g transform="matrix(1 0 0 1 0 0)" style="clip-path:url(#SVGID_00000012473903172714874970000006366624699170642307_);">
						
							<image style="overflow:visible;" width="819" height="55" xlink:href="37EEEA02.png"  transform="matrix(0.1605 0 0 0.1605 68.2011 41.1747)">
						</image>
					</g>
				</g>
			</g>
		</g>
		<path class="st20" d="M70.4,43.7c1.4,0,123.2,0,123.2,0"/>
		<g class="st14">
			<g>
				<defs>
					<rect id="SVGID_00000091699304542779028360000014036842096625016244_" x="68.2" y="65.3" width="131.5" height="8.8"/>
				</defs>
				<clipPath id="SVGID_00000083808780111566467950000001065722748121513358_">
					<use xlink:href="#SVGID_00000091699304542779028360000014036842096625016244_"  style="overflow:visible;"/>
				</clipPath>
				<g style="opacity:0.29;clip-path:url(#SVGID_00000083808780111566467950000001065722748121513358_);">
					<g>
						<defs>
							<rect id="SVGID_00000008842762935409693310000017402861067518499734_" x="68.2" y="65.3" width="131.5" height="8.8"/>
						</defs>
						<clipPath id="SVGID_00000101824458609205563680000014561605517440583072_">
							<use xlink:href="#SVGID_00000008842762935409693310000017402861067518499734_"  style="overflow:visible;"/>
						</clipPath>
						<g style="clip-path:url(#SVGID_00000101824458609205563680000014561605517440583072_);">
							<defs>
								<rect id="SVGID_00000080193194913342891950000014398352166686725532_" x="68.2" y="65.3" width="131.5" height="8.8"/>
							</defs>
							<clipPath id="SVGID_00000155123341205511492570000016291934989420324004_">
								<use xlink:href="#SVGID_00000080193194913342891950000014398352166686725532_"  style="overflow:visible;"/>
							</clipPath>
							<g transform="matrix(1 0 0 1 0 0)" style="clip-path:url(#SVGID_00000155123341205511492570000016291934989420324004_);">
								
									<image style="overflow:visible;" width="819" height="55" xlink:href="37EEEA03.png"  transform="matrix(0.1605 0 0 0.1605 68.2011 65.2561)">
								</image>
							</g>
						</g>
					</g>
				</g>
				
					<path style="clip-path:url(#SVGID_00000083808780111566467950000001065722748121513358_);fill:none;stroke:#1E1E1C;stroke-width:0.5458;stroke-miterlimit:10;" d="
					M70.4,67.7c1.4,0,123.2,0,123.2,0"/>
			</g>
		</g>
		<g class="st18">
			<g>
				<defs>
					<rect id="SVGID_00000085949747627065425860000010681052881692352158_" x="68.2" y="64.8" width="131.5" height="9"/>
				</defs>
				<clipPath id="SVGID_00000161603445442810599950000016586966658174834308_">
					<use xlink:href="#SVGID_00000085949747627065425860000010681052881692352158_"  style="overflow:visible;"/>
				</clipPath>
				<g style="clip-path:url(#SVGID_00000161603445442810599950000016586966658174834308_);">
					<defs>
						<rect id="SVGID_00000100382984819682752800000002456166600176183718_" x="68.2" y="64.8" width="131.5" height="9"/>
					</defs>
					<clipPath id="SVGID_00000155148895547704120720000012537914690416988298_">
						<use xlink:href="#SVGID_00000100382984819682752800000002456166600176183718_"  style="overflow:visible;"/>
					</clipPath>
					<g transform="matrix(1 0 0 1 0 0)" style="clip-path:url(#SVGID_00000155148895547704120720000012537914690416988298_);">
						
							<image style="overflow:visible;" width="819" height="56" xlink:href="37EEEA0D.png"  transform="matrix(0.1605 0 0 0.1605 68.2011 64.7745)">
						</image>
					</g>
				</g>
			</g>
		</g>
		<path class="st20" d="M70.4,67.3c1.4,0,123.2,0,123.2,0"/>
		<path class="st13" d="M77.7,52.6h-2.4l-0.5,1.3h-1.3l2.6-6.2H77l2.5,6.2h-1.3L77.7,52.6z M77.4,51.7l-0.9-2.2l-0.9,2.2H77.4z"/>
		<path class="st13" d="M83,49.2c-0.4-0.5-0.8-0.5-1-0.5c-0.6,0-0.8,0.4-0.8,0.7c0,0.1,0,0.3,0.2,0.4c0.1,0.1,0.3,0.2,0.7,0.4
			c0.5,0.2,0.9,0.3,1.2,0.6c0.3,0.3,0.5,0.7,0.5,1.3c0,1.2-0.9,2-2.1,2c-1.1,0-1.8-0.7-2.1-1.2l0.8-0.8c0.3,0.6,0.8,0.8,1.3,0.8
			c0.5,0,0.9-0.3,0.9-0.9c0-0.2-0.1-0.4-0.2-0.6c-0.2-0.2-0.6-0.3-0.9-0.5c-0.3-0.1-0.7-0.3-1-0.5c-0.2-0.2-0.5-0.5-0.5-1.2
			c0-0.9,0.6-1.8,1.9-1.8c0.4,0,1.1,0.1,1.7,0.7L83,49.2z"/>
		<path class="st13" d="M91.1,50.9c0,1.9-1.3,3.2-3.2,3.2c-1.9,0-3.2-1.3-3.2-3.2c0-1.9,1.3-3.2,3.2-3.2
			C89.8,47.6,91.1,49,91.1,50.9 M89.9,50.9c0-1.3-0.8-2.1-2-2.1c-1.2,0-2,0.9-2,2.1c0,1.3,0.8,2.1,2,2.1
			C89.1,53,89.9,52.1,89.9,50.9"/>
		<path class="st13" d="M96.6,53.7c-0.4,0.2-0.8,0.4-1.5,0.4c-1.1,0-1.7-0.4-2.2-0.9c-0.7-0.7-1-1.5-1-2.4c0-1.1,0.5-1.9,1-2.4
			c0.6-0.6,1.4-0.8,2.2-0.8c0.4,0,0.9,0.1,1.5,0.4v1.4c-0.6-0.7-1.2-0.7-1.5-0.7c-1.2,0-2,1-2,2.2c0,1.4,1,2.1,2.1,2.1
			c0.6,0,1.1-0.3,1.4-0.7V53.7z"/>
		<rect x="97.7" y="47.8" class="st13" width="1.2" height="6.2"/>
		<path class="st13" d="M103.9,52.6h-2.4l-0.5,1.3h-1.3l2.6-6.2h0.9l2.5,6.2h-1.3L103.9,52.6z M103.5,51.7l-0.9-2.2l-0.9,2.2H103.5z
			"/>
		<path class="st13" d="M110.6,53.7c-0.4,0.2-0.8,0.4-1.5,0.4c-1.1,0-1.7-0.4-2.2-0.9c-0.7-0.7-1-1.5-1-2.4c0-1.1,0.5-1.9,1-2.4
			c0.6-0.6,1.4-0.8,2.2-0.8c0.4,0,0.9,0.1,1.5,0.4v1.4c-0.6-0.7-1.2-0.7-1.5-0.7c-1.2,0-2,1-2,2.2c0,1.4,1,2.1,2.1,2.1
			c0.6,0,1.1-0.3,1.4-0.7V53.7z"/>
		<rect x="111.7" y="47.8" class="st13" width="1.2" height="6.2"/>
		<path class="st13" d="M120.5,50.9c0,1.9-1.3,3.2-3.2,3.2s-3.2-1.3-3.2-3.2c0-1.9,1.3-3.2,3.2-3.2S120.5,49,120.5,50.9 M119.2,50.9
			c0-1.3-0.8-2.1-2-2.1c-1.2,0-2,0.9-2,2.1c0,1.3,0.8,2.1,2,2.1C118.4,53,119.2,52.1,119.2,50.9 M116.5,46.7l1.3-1.3l0.8,0.7
			l-1.6,1.1L116.5,46.7z"/>
		<polygon class="st13" points="121.5,53.9 121.5,47.8 122.4,47.8 126.1,51.9 126.1,47.8 127.2,47.8 127.2,53.9 126.4,53.9 
			122.7,49.8 122.7,53.9 		"/>
		<path class="st13" d="M135.2,53.7c-0.4,0.2-0.8,0.4-1.5,0.4c-1.1,0-1.7-0.4-2.2-0.9c-0.7-0.7-1-1.5-1-2.4c0-1.1,0.5-1.9,1-2.4
			c0.6-0.6,1.4-0.8,2.2-0.8c0.4,0,0.9,0.1,1.5,0.4v1.4c-0.6-0.7-1.2-0.7-1.5-0.7c-1.2,0-2,1-2,2.2c0,1.4,1,2.1,2.1,2.1
			c0.6,0,1.1-0.3,1.4-0.7V53.7z"/>
		<path class="st13" d="M142.4,50.9c0,1.9-1.3,3.2-3.2,3.2c-1.9,0-3.2-1.3-3.2-3.2c0-1.9,1.3-3.2,3.2-3.2
			C141.1,47.6,142.4,49,142.4,50.9 M141.2,50.9c0-1.3-0.8-2.1-2-2.1c-1.2,0-2,0.9-2,2.1c0,1.3,0.8,2.1,2,2.1
			C140.4,53,141.2,52.1,141.2,50.9"/>
		<polygon class="st13" points="144.7,47.8 144.7,52.9 146.6,52.9 146.6,53.9 143.5,53.9 143.5,47.8 		"/>
		<path class="st13" d="M153.4,50.9c0,1.9-1.3,3.2-3.2,3.2c-1.9,0-3.2-1.3-3.2-3.2c0-1.9,1.3-3.2,3.2-3.2
			C152.1,47.6,153.4,49,153.4,50.9 M152.2,50.9c0-1.3-0.8-2.1-2-2.1c-1.2,0-2,0.9-2,2.1c0,1.3,0.8,2.1,2,2.1
			C151.4,53,152.2,52.1,152.2,50.9"/>
		<polygon class="st13" points="155.3,47.8 156.2,47.8 157.8,51.7 159.5,47.8 160.3,47.8 161.3,53.9 160.1,53.9 159.6,50.1 
			158,53.9 157.6,53.9 156,50.1 155.4,53.9 154.2,53.9 		"/>
		<path class="st13" d="M163.9,47.8c0.3,0,1,0,1.5,0.4c0.4,0.3,0.6,0.8,0.6,1.3c0,0.8-0.5,1.1-0.7,1.2c0.4,0.1,0.6,0.2,0.8,0.4
			c0.4,0.4,0.4,0.8,0.4,1.2c0,0.4-0.1,0.9-0.5,1.3c-0.5,0.4-1,0.5-1.5,0.5h-2v-6.2H163.9z M163.6,50.3h0.3c0.2,0,0.9,0,0.9-0.8
			c0-0.6-0.4-0.8-0.9-0.8h-0.3V50.3z M163.6,53h0.5c0.2,0,0.5,0,0.8-0.2c0.3-0.2,0.4-0.5,0.4-0.7c0-0.2-0.1-0.5-0.4-0.7
			c-0.3-0.1-0.6-0.1-0.8-0.1h-0.4V53z"/>
		<rect x="167.6" y="47.8" class="st13" width="1.2" height="6.2"/>
		<path class="st13" d="M173.8,52.6h-2.4l-0.5,1.3h-1.3l2.6-6.2h0.9l2.5,6.2h-1.3L173.8,52.6z M173.4,51.7l-0.9-2.2l-0.9,2.2H173.4z
			"/>
		<polygon class="st13" points="176.3,53.9 176.3,47.8 177.1,47.8 180.8,51.9 180.8,47.8 182,47.8 182,53.9 181.2,53.9 177.5,49.8 
			177.5,53.9 		"/>
		<path class="st13" d="M187,52.6h-2.4l-0.5,1.3h-1.3l2.6-6.2h0.9l2.5,6.2h-1.3L187,52.6z M186.6,51.7l-0.9-2.2l-0.9,2.2H186.6z"/>
		<path class="st13" d="M93.8,58.9c0.8,0,1.6,0.1,2.3,0.6c0.7,0.6,1.2,1.5,1.2,2.5c0,1-0.4,1.9-1.2,2.5c-0.7,0.5-1.4,0.6-2.2,0.6
			h-1.6v-6.2H93.8z M93.4,64h0.4c0.3,0,1,0,1.5-0.4c0.5-0.4,0.8-1,0.8-1.6c0-0.6-0.3-1.3-0.7-1.7c-0.5-0.4-1.1-0.4-1.5-0.4h-0.4V64z
			"/>
		<polygon class="st13" points="101.7,59.9 99.5,59.9 99.5,61.3 101.6,61.3 101.6,62.4 99.5,62.4 99.5,64 101.7,64 101.7,65.1 
			98.3,65.1 98.3,58.9 101.7,58.9 		"/>
		<path class="st13" d="M106.1,58.9v3.9c0,0.5,0.2,0.8,0.3,0.9c0.2,0.2,0.5,0.4,1,0.4c0.5,0,0.8-0.2,1-0.4c0.1-0.2,0.3-0.4,0.3-0.9
			v-3.9h1.2v3.8c0,0.6-0.1,1.2-0.5,1.7c-0.4,0.6-1.2,0.9-2,0.9c-0.8,0-1.5-0.3-2-0.9c-0.4-0.5-0.5-1.1-0.5-1.7v-3.8H106.1z"/>
		<polygon class="st13" points="111.2,65.1 111.2,58.9 112,58.9 115.7,63 115.7,58.9 116.9,58.9 116.9,65.1 116.1,65.1 112.4,60.9 
			112.4,65.1 		"/>
		<rect x="118.3" y="58.9" class="st13" width="1.2" height="6.2"/>
		<polygon class="st13" points="121.5,58.9 123.1,63 124.7,58.9 126,58.9 123.5,65.1 122.7,65.1 120.2,58.9 		"/>
		<polygon class="st13" points="130.1,59.9 127.9,59.9 127.9,61.3 130,61.3 130,62.4 127.9,62.4 127.9,64 130.1,64 130.1,65.1 
			126.7,65.1 126.7,58.9 130.1,58.9 		"/>
		<path class="st13" d="M133,58.9c0.8,0,1.3,0.2,1.5,0.5c0.5,0.4,0.6,0.9,0.6,1.4c0,0.6-0.2,1.1-0.7,1.5c-0.2,0.1-0.4,0.2-0.7,0.3
			l1.9,2.6h-1.5l-1.6-2.5h-0.1v2.5h-1.2v-6.2H133z M132.4,61.7h0.3c0.2,0,1.2,0,1.2-0.9c0-0.9-0.9-0.9-1.1-0.9h-0.4V61.7z"/>
		<path class="st13" d="M139.5,60.3c-0.4-0.5-0.8-0.5-1-0.5c-0.6,0-0.8,0.4-0.8,0.7c0,0.1,0,0.3,0.2,0.4c0.1,0.1,0.3,0.2,0.7,0.4
			c0.5,0.2,0.9,0.3,1.2,0.6c0.3,0.3,0.5,0.7,0.5,1.3c0,1.2-0.9,2-2.1,2c-1.1,0-1.8-0.7-2.1-1.2l0.8-0.8c0.3,0.6,0.8,0.8,1.3,0.8
			c0.5,0,0.9-0.3,0.9-0.9c0-0.2-0.1-0.4-0.2-0.6c-0.2-0.2-0.6-0.3-0.9-0.5c-0.3-0.1-0.7-0.3-1-0.5c-0.2-0.2-0.5-0.5-0.5-1.2
			c0-0.9,0.6-1.8,1.9-1.8c0.4,0,1.1,0.1,1.7,0.7L139.5,60.3z"/>
		<rect x="141.3" y="58.9" class="st13" width="1.2" height="6.2"/>
		<path class="st13" d="M145.5,58.9c0.8,0,1.6,0.1,2.3,0.6c0.7,0.6,1.2,1.5,1.2,2.5c0,1-0.4,1.9-1.2,2.5c-0.7,0.5-1.4,0.6-2.2,0.6
			h-1.6v-6.2H145.5z M145.1,64h0.4c0.3,0,1,0,1.5-0.4c0.5-0.4,0.8-1,0.8-1.6c0-0.6-0.3-1.3-0.7-1.7c-0.5-0.4-1.1-0.4-1.5-0.4h-0.4
			V64z"/>
		<path class="st13" d="M153.4,63.8H151l-0.5,1.3h-1.3l2.6-6.2h0.9l2.5,6.2h-1.3L153.4,63.8z M153.1,62.8l-0.9-2.2l-0.9,2.2H153.1z"
			/>
		<path class="st13" d="M157.5,58.9c0.8,0,1.6,0.1,2.3,0.6c0.7,0.6,1.2,1.5,1.2,2.5c0,1-0.4,1.9-1.2,2.5c-0.7,0.5-1.4,0.6-2.2,0.6
			h-1.6v-6.2H157.5z M157.1,64h0.4c0.3,0,1,0,1.5-0.4c0.5-0.4,0.8-1,0.8-1.6c0-0.6-0.3-1.3-0.7-1.7c-0.5-0.4-1.1-0.4-1.5-0.4h-0.4
			V64z"/>
		<polygon class="st13" points="165.4,59.9 163.2,59.9 163.2,61.3 165.3,61.3 165.3,62.4 163.2,62.4 163.2,64 165.4,64 165.4,65.1 
			162,65.1 162,58.9 165.4,58.9 		"/>
		<path class="st13" d="M169.5,60.3c-0.4-0.5-0.8-0.5-1-0.5c-0.6,0-0.8,0.4-0.8,0.7c0,0.1,0,0.3,0.2,0.4c0.1,0.1,0.3,0.2,0.7,0.4
			c0.5,0.2,0.9,0.3,1.2,0.6c0.3,0.3,0.5,0.7,0.5,1.3c0,1.2-0.9,2-2.1,2c-1.1,0-1.8-0.7-2.1-1.2l0.8-0.8c0.3,0.6,0.8,0.8,1.3,0.8
			c0.5,0,0.9-0.3,0.9-0.9c0-0.2-0.1-0.4-0.2-0.6c-0.2-0.2-0.6-0.3-0.9-0.5c-0.3-0.1-0.7-0.3-1-0.5c-0.2-0.2-0.5-0.5-0.5-1.2
			c0-0.9,0.6-1.8,1.9-1.8c0.4,0,1.1,0.1,1.7,0.7L169.5,60.3z"/>
	</g>
</g>
<g>
</g>
<g>
</g>
<g>
</g>
<g>
</g>
<g>
</g>
<g>
</g>
<g>
</g>
<g>
</g>
<g>
</g>
<g>
</g>
<g>
</g>
<g>
</g>
<g>
</g>
<g>
</g>
<g>
</g>
</svg>
