<?xml version="1.0" encoding="utf-8"?>
<!-- Generator: Adobe Illustrator 26.1.0, SVG Export Plug-In . SVG Version: 6.00 Build 0)  -->
<svg version="1.1" id="Capa_1" xmlns="http://www.w3.org/2000/svg" xmlns:xlink="http://www.w3.org/1999/xlink" x="0px" y="0px"
	 viewBox="0 0 1547.7 325" style="enable-background:new 0 0 1547.7 325;" xml:space="preserve">
<style type="text/css">
	.st0{fill:#46B3B3;}
	.st1{fill:#FFFFFF;}
	.st2{fill:#FFAA00;}
</style>
<g>
	<g>
		<g>
			<g>
				<path class="st0" d="M324.9,183.7h-65.1c-7.3,0-15.4-4.4-15.4-13.1v-17.2c0-8.7,8-13.2,15.4-13.2h65.1V66.4h-66.4v1.9
					c0,37.9-22.8,69-68.5,69h-2.5v49.1h2.5c45.7,0,68.5,31.1,68.5,69v1.9h66.4V183.7z"/>
				<path class="st0" d="M138.3,186.5v-49.1h-2.5c-45.7,0-68.5-31.1-68.5-69v-1.9H0v73.7h66c7.3,0,15.4,4.4,15.4,13.1v17.2
					c0,8.7-8,13.1-15.4,13.1H0v73.7h67.3v-1.9c0-37.9,22.8-69,68.5-69L138.3,186.5z"/>
			</g>
			<g>
				<path class="st0" d="M256.6,257.5c-37.9,0-69-22.8-69-68.5v-2.5h-49.1v2.5c0,45.7-31.1,68.5-69,68.5h-1.9V325h73.7v-66
					c0-7.3,4.4-15.4,13.1-15.4h17.2c8.7,0,13.1,8,13.1,15.4v66h73.7v-67.5L256.6,257.5z"/>
				<path class="st0" d="M138.3,134.9v2.5h49.1v-2.5c0-45.7,31.1-68.5,69-68.5h1.9V0h-73.7v65.1c0,7.3-4.4,15.4-13.1,15.4h-17.2
					c-8.7,0-13.2-8-13.2-15.4V0H67.5v66.4h1.9C107.3,66.4,138.3,89.3,138.3,134.9z"/>
			</g>
			<g>
				<path class="st1" d="M258.5,255.5c0-37.9-22.8-69-68.5-69h-2.5v2.5c0,45.6,31.1,68.5,69,68.5h1.9L258.5,255.5z"/>
				<path class="st1" d="M67.5,255.5v1.9h1.9c37.9,0,69-22.8,69-68.5v-2.5h-2.5C90.3,186.5,67.5,217.6,67.5,255.5z"/>
				<path class="st1" d="M258.5,68.4v-1.9h-1.9c-37.9,0-69,22.8-69,68.5v2.5h2.5C235.7,137.4,258.5,106.3,258.5,68.4z"/>
				<path class="st1" d="M69.3,66.4h-1.9v1.9c0,37.9,22.8,69,68.5,69h2.5v-2.5C138.3,89.3,107.3,66.4,69.3,66.4z"/>
			</g>
		</g>
	</g>
	<g>
		<g>
			<rect x="400.8" y="66.4" class="st1" width="44.2" height="190.9"/>
			<path class="st1" d="M697.4,115.3c-9-4.6-19.3-7-31-7c-14,0-26.4,3.4-37.2,10.1c-6.2,3.8-11.4,8.4-15.6,13.8
				c-3.4-5.5-7.7-10.1-13-13.7c-10.1-6.8-21.9-10.2-35.3-10.2c-12,0-22.7,2.6-32,7.8c-5.4,3-10.1,6.8-14,11.4v-17h-40.6v146.7h42.5
				v-73.6c0-8.7,1.4-15.9,4.1-21.5c2.7-5.6,6.5-9.9,11.5-12.7c4.9-2.8,10.5-4.2,16.6-4.2c8.9,0,15.8,2.8,20.6,8.5
				c4.8,5.6,7.2,14.4,7.2,26.2v77.4h42.5v-73.6c0-8.7,1.4-15.9,4.1-21.5c2.7-5.6,6.5-9.9,11.5-12.7c4.9-2.8,10.5-4.2,16.6-4.2
				c8.9,0,15.8,2.8,20.7,8.5c4.9,5.6,7.4,14.4,7.4,26.2v77.4h42.5v-84c0-14.9-2.6-27.1-7.8-36.7C713.4,127.1,706.4,120,697.4,115.3z
				"/>
			<path class="st1" d="M878.9,117.8c-11-6.3-23.4-9.4-37.2-9.4c-12.9,0-24,2.7-33.3,8.2c-4.9,2.9-9.1,6.5-12.8,11v-17H755v199.6
				h42.5v-68.5c3.5,3.8,7.4,7,11.7,9.6c9.3,5.5,20.1,8.2,32.5,8.2c13.8,0,26.2-3.1,37.2-9.3c11-6.2,19.7-14.9,26.2-26.2
				c6.5-11.3,9.7-24.6,9.7-40.1c0-15.3-3.2-28.5-9.7-39.8C898.6,132.8,889.9,124.1,878.9,117.8z M866.6,205.6
				c-3.4,6.1-7.8,10.8-13.4,14c-5.5,3.3-11.9,4.9-19,4.9s-13.5-1.6-19.1-4.9c-5.6-3.3-10.1-8-13.4-14c-3.3-6.1-4.9-13.3-4.9-21.7
				c0-8.5,1.6-15.8,4.9-21.8c3.3-6,7.7-10.6,13.4-13.9c5.6-3.3,12-4.9,19.1-4.9s13.4,1.6,19,4.9c5.5,3.3,10,7.9,13.4,13.9
				c3.4,6,5,13.3,5,21.8C871.7,192.3,870,199.5,866.6,205.6z"/>
			<path class="st1" d="M1045.4,124.2c-12.4-10.5-29.7-15.8-52.1-15.8c-11.6,0-23.1,1.5-34.4,4.6c-11.3,3.1-20.9,7.5-28.9,13.1
				l15.3,29.7c5.3-4.2,11.7-7.5,19.2-10c7.5-2.5,15.2-3.7,23-3.7c11.5,0,20,2.5,25.5,7.6c5.5,5.1,8.3,12.2,8.3,21.3h-33.8
				c-14.9,0-27,1.9-36.3,5.6c-9.3,3.7-16,8.9-20.3,15.4c-4.3,6.5-6.4,14.2-6.4,22.9c0,8.4,2.2,15.9,6.5,22.6
				c4.4,6.7,10.6,12,18.8,16c8.2,3.9,18,5.9,29.5,5.9c12.9,0,23.5-2.5,31.6-7.4c5.5-3.3,9.9-7.7,13.1-13.1v18.3h39.8v-83.7
				C1063.9,151.2,1057.8,134.8,1045.4,124.2z M1009.1,225.8c-5.6,3.4-12,5-19.1,5c-7.5,0-13.3-1.6-17.6-4.8c-4.3-3.2-6.4-7.5-6.4-13
				c0-4.9,1.9-9,5.6-12.3c3.7-3.3,10.6-4.9,20.6-4.9h29.2v15C1018.9,217.5,1014.8,222.4,1009.1,225.8z"/>
			<path class="st1" d="M1144.2,148.2c5.8-3.3,12.4-4.9,19.6-4.9c6.7,0,13,1.6,18.7,4.9c5.7,3.3,10.5,8.4,14.3,15.3l33-17.7
				c-5.5-12-13.9-21.2-25.4-27.7c-11.5-6.5-24.9-9.7-40.4-9.7c-15.8,0-29.9,3.2-42.3,9.7c-12.4,6.5-22,15.4-29,26.7
				c-7,11.4-10.5,24.4-10.5,39.1c0,14.5,3.5,27.5,10.5,39c7,11.5,16.7,20.4,29,26.9c12.4,6.5,26.5,9.7,42.3,9.7
				c15.4,0,28.9-3.2,40.4-9.7c11.5-6.5,19.9-15.6,25.4-27.4l-33-18c-3.8,7.1-8.6,12.2-14.3,15.4c-5.7,3.2-12,4.8-18.7,4.8
				c-7.3,0-13.8-1.6-19.6-4.9c-5.8-3.3-10.4-7.9-13.8-13.9c-3.4-6-5-13.3-5-21.8c0-8.5,1.7-15.8,5-21.8
				C1133.8,156.1,1138.3,151.5,1144.2,148.2z"/>
			<path class="st1" d="M1336,220.2c-4.7,3.6-10.5,5.5-17.2,5.5c-5.6,0-10.1-1.7-13.4-5c-3.3-3.4-4.9-8.1-4.9-14.3v-59.7h36.5v-32.7
				h-36.5V78.1H1258v35.7h-22.6v32.7h22.6v60.3c0,17.5,4.8,30.6,14.5,39.4c9.6,8.8,23.1,13.2,40.4,13.2c6.5,0,12.9-0.8,19-2.3
				c6.1-1.5,11.3-3.9,15.7-7L1336,220.2z"/>
		</g>
		<g>
			<path class="st2" d="M1461.3,263.3c-27.1,0-48.3-7.5-63.5-22.6c-15.3-15.1-22.9-36.6-22.9-64.6V69.1h44.2v105.3
				c0,18.2,3.7,31.3,11.2,39.3c7.5,8,17.9,12,31.4,12c13.5,0,23.9-4,31.4-12c7.5-8,11.2-21.1,11.2-39.3V69.1h43.6V176
				c0,28-7.6,49.5-22.9,64.6C1509.6,255.7,1488.4,263.3,1461.3,263.3z"/>
		</g>
	</g>
</g>
</svg>
