<?xml version="1.0" encoding="utf-8"?>
<!-- Generator: Adobe Illustrator 23.0.0, SVG Export Plug-In . SVG Version: 6.00 Build 0)  -->
<svg version="1.1" id="Capa_1" xmlns="http://www.w3.org/2000/svg" xmlns:xlink="http://www.w3.org/1999/xlink" x="0px" y="0px"
	 viewBox="0 0 720 198.4" style="enable-background:new 0 0 720 198.4;" xml:space="preserve">
<style type="text/css">
	.st0{fill:#004C31;enable-background:new    ;}
</style>
<path class="st0" d="M0.3,28.9c22.7,0,45.5,0,68.4,0c0,5.9,0,11.7,0,17.6c-12.6-0.7-25.1-1.4-38-2c0,10.4,0,20.4,0,30.9
	c12.4-0.5,25-1.1,37.7-1.7c0,5.8,0,11.4,0,17.2c-12.6-0.5-25.2-0.9-38-1.4c-0.1,0.8-0.2,1.3-0.2,1.9c0.1,10.8,0.1,21.5,0.1,32.3
	c0,1.7,0.6,2,2.1,2c11.4-0.1,22.7-0.8,34-2c0.8-0.1,1.6-0.1,2.5-0.2c0,5.7,0,11.3,0,17.2c-22.8,0-45.7,0-68.6,0
	C0.3,103.4,0.3,66.1,0.3,28.9z"/>
<path class="st0" d="M720.3,103.3c-0.5,3.1-0.9,6.2-1.6,9.2c-3.9,16.3-16.1,27.2-32.8,29.5c-10.6,1.5-20.9,0.8-30.7-3.8
	c-12.7-5.9-19.3-16.3-20.5-30.1c-0.7-7.9-0.1-15.6,2.9-23c6-14.8,17.1-23.1,32.7-25.4c9.6-1.4,19.1-0.6,28.1,3.4
	c12.3,5.4,19,15.2,21.2,28.3c0.2,1.4,0.4,2.9,0.7,4.4C720.3,98.3,720.3,100.8,720.3,103.3z M691.5,98.5c0-2,0.1-3.9,0-5.9
	c-0.2-5.3-0.9-10.5-3.1-15.4c-1.8-4.2-4.9-6.8-9.6-7.2c-4.7-0.4-8,1.8-10.4,5.6c-2.1,3.2-3.2,6.9-3.9,10.6
	c-1.7,9.6-1.8,19.2-0.6,28.8c0.6,4.7,1.9,9.1,4.8,13.1c3.9,5.2,13.1,6,17.1-0.6c1.4-2.3,2.6-5,3.3-7.6
	C691.3,113,691.6,105.8,691.5,98.5z"/>
<path class="st0" d="M413.9,198.7c0,0-0.1-0.1-0.1-0.1c-9.9-1.1-10.9-17.4-4.5-22.8c3.8-3.2,10.4-3.7,14.3,0.8c0-5.6,0-10.9,0-16.3
	c2.6,0,5.3,0,8,0c0,12.5,0,25,0,37.7c-2.4,0-4.9,0-7.6,0c0.1-1.2,0.1-2.3,0.3-4c-1.6,2.7-3.6,4.1-6.2,4.8
	C416.6,198.7,415.2,198.7,413.9,198.7z M424.1,185.3c-0.5-1.8-0.7-4.2-1.7-6.3c-1.7-3.3-5.7-3.1-7.3,0.2c-0.7,1.5-1.2,3.2-1.3,4.8
	c-0.4,3.3-0.4,6.6,1.3,9.6c1.5,2.7,4.7,3,6.7,0.7c0.6-0.7,1.2-1.7,1.4-2.6C423.5,189.7,423.7,187.8,424.1,185.3z"/>
<path class="st0" d="M660.1,198.7c-1.8-1-3.6-2-5.5-2.9c-0.4-0.2-1-0.1-1.4,0.1c-1,0.5-2,1.2-3,1.8c-0.6,0.3-1.3,0.4-2,0.6
	c0-12.9,0-25.5,0-38c2.6,0,5.2,0,7.9,0c0,5.5,0,11.1,0,16.8c0,0,0.1,0,0.2,0c4.5-5.2,11.9-5,16,0.5c3.6,4.9,3,13.4-1.3,17.7
	c-2,2-4.6,2.7-7.2,3.4C662.6,198.7,661.4,198.7,660.1,198.7z M666.5,186.1c-0.2-1.9-0.3-3.9-0.8-5.9c-0.6-2.5-2.2-3.9-4.3-3.9
	c-2.2,0-3.8,1.2-4.5,3.7c-0.4,1.5-0.7,3-0.8,4.5c-0.2,3.2-0.2,6.3,1,9.4c0.6,1.5,1.6,2.6,3.3,2.7c1.9,0.2,3.2-0.7,4.1-2.2
	c0.4-0.7,0.8-1.5,1-2.3C665.9,190.2,666.2,188.3,666.5,186.1z"/>
<path class="st0" d="M499.8,198.7c-1.7-0.3-3.4-0.6-5.1-1c-7.2-1.9-12.2-7.1-12.9-13.4c-1.2-10.3,4.2-18.1,14.3-20.5
	c5.8-1.4,11.5-1.3,17.2,0.4c0.6,0.2,1.2,0.4,1.8,0.6c0.2,0.1,0.5,0.2,0.7,0.4c-0.4,1.7-0.8,3.3-1.3,5.1c-0.4-0.2-0.9-0.4-1.2-0.7
	c-3.8-3.8-8.3-4.7-13.2-3.1c-5.1,1.7-7.7,5.7-8.7,10.8c-0.6,3.1-0.5,6.2,0.4,9.2c2.1,6.8,8.8,10.6,16.1,8.8c2.3-0.6,4.4-1.9,6.6-2.9
	c0.3-0.1,0.5-0.3,0.8-0.4c0.5,2.2-0.9,4.8-2.8,5.3c-2,0.5-4.1,0.9-6.1,1.3C504,198.7,501.9,198.7,499.8,198.7z"/>
<path class="st0" d="M531.1,198.7c-0.6-0.2-1.2-0.3-1.8-0.5c-5.5-1.2-9.2-4.9-9.6-10c-0.5-6.7,2.4-11.9,8-14c4-1.5,8.1-1.5,12.1-0.2
	c5.4,1.8,8.3,6.8,7.7,12.7c-0.8,6.6-4.3,10.3-10.9,11.5c-0.2,0-0.5,0.2-0.7,0.3C534.3,198.7,532.7,198.7,531.1,198.7z M539.5,185.5
	c-0.4-2.5-0.7-4.6-1.2-6.7c-0.5-2.1-2-3.3-4.2-3.4c-2.2-0.1-3.7,1-4.5,2.9c-2,5.1-2.2,10.3-0.2,15.4c0.6,1.7,1.9,2.7,3.8,2.9
	c2.2,0.1,3.9-0.7,4.6-3C538.6,190.8,538.9,188,539.5,185.5z"/>
<path class="st0" d="M579,198.7c-0.7-0.2-1.3-0.3-2-0.5c-5.9-1.3-9.1-4.9-9.6-10.8c-0.5-5.8,2.7-11.1,7.9-13.1
	c4.1-1.6,8.3-1.5,12.4-0.1c5.1,1.7,7.8,6.1,7.5,11.9c-0.3,6-3.6,10.4-8.9,11.9c-1,0.3-1.9,0.5-2.9,0.7
	C581.9,198.7,580.5,198.7,579,198.7z M575.4,186.6c0.5,2.2,0.9,4.8,1.8,7.3c0.6,1.8,2.2,2.7,4.2,2.7c1.9,0,3.1-1.1,3.9-2.7
	c0.3-0.7,0.7-1.5,0.8-2.2c0.3-3.1,0.6-6.2,0.6-9.3c0-1.4-0.5-2.9-1-4.3c-0.8-2.1-2.6-3-4.8-2.7c-2.2,0.3-3.5,1.8-4,3.8
	C576.2,181.5,575.9,183.8,575.4,186.6z"/>
<path class="st0" d="M700,198.7c-0.4-0.1-0.9-0.3-1.3-0.4c-2.6-0.7-4.4-2.7-4.7-5.2c-0.3-3,0.7-5.2,3.4-6.4c2.2-1,4.7-1.5,7.1-2.2
	c1.2-0.3,2.3-0.6,3.5-1c1.2-0.4,1.6-1.4,1.5-2.6c-0.2-1.8-1.6-3.3-3.6-3.7c-2.9-0.7-5.5,0.2-7.9,1.8c-0.3,0.2-0.6,0.4-0.9,0.7
	c0,0-0.1,0-0.2,0c0,0-0.1,0-0.1-0.1c-0.9-3.4-1.2-2.7,1.8-4.3c3.9-2.1,8.1-2.5,12.4-1.5c4.1,1,6.2,3.6,6.2,7.8c0,4-0.2,7.9-0.1,11.9
	c0,2.4,0.8,3,3.3,2.8c0,0.8,0,1.7,0,2.5c-2.2,0-4.4,0-6.7,0c-1.4-1-2.8-1.9-4.2-2.8c-1.7,0.9-3.7,1.8-5.7,2.8
	C702.6,198.7,701.3,198.7,700,198.7z M709.5,185.2c-1.6,0.6-3.1,1-4.6,1.7c-0.7,0.3-1.4,0.9-2,1.5c-1.2,1.4-1.3,4.2-0.3,5.7
	c0.8,1.2,2.3,1.6,4,1.2c1.8-0.5,2.8-1.8,2.9-3.6C709.6,189.6,709.5,187.5,709.5,185.2z"/>
<path class="st0" d="M448.4,198.7c-0.9-0.2-1.7-0.4-2.6-0.6c-5-1.2-8.4-5.1-8.7-10.2c-0.1-2,0-4.2,0.5-6.1c1.4-5.6,6.3-8.8,12.9-8.5
	c2,0.1,4,0.4,5.8,1.2c4,1.7,6,6,5.4,11.5c-5.3,0-10.7,0-16,0c-0.7,3.9,1.3,8,4.6,9.1c3.7,1.4,7,0,10.4-1.8c-0.4,3.7-3,4.4-5.6,5
	c-0.5,0.1-1,0.2-1.5,0.4C451.8,198.7,450.1,198.7,448.4,198.7z M454.4,183.7c-0.4-2-0.7-3.9-1.1-5.7c-0.4-1.5-1.3-2.5-3-2.7
	c-1.7-0.1-3,0.7-3.5,2.1c-0.7,1.9-1.1,4-1.7,6.2C448.4,183.7,451.1,183.7,454.4,183.7z"/>
<path class="st0" d="M626.1,140.5c-5,0-9.8,0-14.5,0c-4.8,0.1-9.6,0.2-14.1,0.3c0.5-2,1.2-4.3,1.9-6.7c-0.1-0.1-0.3-0.1-0.4-0.2
	c-0.2,0.2-0.5,0.3-0.7,0.5c-4.5,5.4-10.4,7.7-17.2,8.2c-4.9,0.4-9.7,0.1-14.4-1.3c-9.3-2.9-15.6-9.1-18.9-18
	c-5.5-14.7-6.2-29.6,0.6-44.1c4.5-9.5,11.7-16.3,22.1-19c10-2.5,19.3-0.6,27.2,6.3c0.2,0.2,0.4,0.4,0.6,0.5c0.1,0.1,0.2,0.1,0.7,0.4
	c-0.5-16.5-0.9-32.6-1.4-48.9c9.5,0,19,0,28.6,0C624.3,59.1,624.3,99.8,626.1,140.5z M572,103.9c0.1,2,0.3,5.4,0.7,8.7
	c0.5,4.4,1.5,8.6,4,12.4c3.8,5.9,10.8,6.5,15.6,1.3c2.2-2.4,3.7-5.3,4.5-8.4c2.5-10.3,2.6-20.7,0.8-31.1c-0.7-3.7-2.1-7.2-4.8-10
	c-4.2-4.5-10.7-4.4-14.5,0.5c-1.4,1.8-2.5,4-3.4,6.2C572.5,89.6,572.2,96,572,103.9z"/>
<path class="st0" d="M424.5,140.8c0.4-3.9,1-7.9,1.2-11.8c0.4-10.1,0.8-20.3,0.9-30.4c0-4.3-0.1-8.7-1-12.9
	c-1.4-7-6.8-10.1-13.7-8.7c-3.1,0.6-5.3,2.5-6.8,5.2c-2.3,4.3-3.2,9-3.1,13.8c0.2,13,0.6,26.1,0.9,39.1c0.1,1.9,0.4,3.9,0.6,5.8
	c-9.8,0-19.5,0-29.3,0c2.3-26.5,2.3-53.1,0-79.6c9.3,0,18.6,0,28.1,0c-0.1,2.7-0.3,5.3-0.4,8.4c0.7-0.7,1.2-1.1,1.6-1.5
	c10.2-10.2,24.5-10.8,35.3-6.4c7.7,3.2,12,9.4,13.4,17.4c0.8,4.1,1.1,8.4,1.1,12.6c0,10.9-0.3,21.9-0.3,32.8c0,5,0.5,9.9,0.8,14.9
	c0,0.5,0,1,0.1,1.6C443.9,140.8,434.2,140.8,424.5,140.8z"/>
<path class="st0" d="M542.5,131.6c0,2,0,4,0,5.9c0,0.4-0.4,0.9-0.7,1c-5.6,2.1-11.1,4.3-17.3,4.1c-6.6-0.2-11.7-2.8-15.2-8.5
	c-0.2-0.3-0.3-0.5-0.6-0.8c-0.7,0.7-1.4,1.4-2.1,2c-5.1,4.8-11.2,7.2-18.2,7.3c-4.8,0.1-9.6-0.3-14.1-2.3c-7.9-3.5-12-9.7-12.6-18.2
	c-0.7-10.2,3.8-17.4,12.9-21.9c5.5-2.7,11.4-3.9,17.3-5.4c3.6-0.9,7.1-1.9,10.6-3.1c3.9-1.4,4.8-3.3,4-7.4c-1-5-5-8.7-10.4-9.5
	c-7.8-1.2-14.7,1.4-20.9,6c-0.5,0.4-0.9,1.1-1.4,1.5c-0.5,0.4-1.1,0.8-1.7,0.8c-2.6,0.2-2.6,0.1-3.2-2.4c-0.6-2.8-1.3-5.5-1.9-8.3
	c-0.1-0.5,0.1-1.4,0.5-1.7c13.8-10.2,29-14,45.9-9.9c13,3.2,19.6,12.2,19.6,26.2c0,11.7-0.4,23.3-0.5,35c0,1.7,0.1,3.5,0.4,5.2
	c0.5,2.9,1.7,3.9,4.6,4.1c1.5,0.1,3.1,0.2,4.6,0.3C542.2,131.5,542.3,131.6,542.5,131.6z M507.4,101.4c-2.9,1-5.6,1.9-8.3,2.9
	c-1.4,0.5-2.8,1.2-4.2,1.9c-0.6,0.3-1.2,0.7-1.7,1.2c-4.3,3.5-5.9,10.3-3.8,16.2c1.2,3.3,3.6,5,7.1,5c5.4,0,9.5-3.5,10.1-9.3
	C507.2,113.4,507.2,107.5,507.4,101.4z"/>
<path class="st0" d="M250.2,103.2c0.4,8.1,1.8,15.6,7.9,21.4c2.9,2.8,6.6,4.2,10.6,4.4c8.1,0.6,15.3-1.7,21.7-6.6
	c0.3-0.2,0.6-0.4,1-0.7c1.4,1,2.8,2,4.3,3c-1.5,3.5-2.9,6.9-4.4,10.3c-0.2,0.5-0.8,0.8-1.3,1.1c-5.1,3.4-10.8,5.3-16.8,6
	c-8.4,0.9-16.7,0.8-24.8-1.6c-14.9-4.5-23.5-14.7-26.2-29.9c-1.4-8.1-1.1-16.3,1.2-24.3c4.4-14.8,14.4-23.5,29.4-26.4
	c7.8-1.5,15.6-1.3,23.2,1c11.6,3.6,18.4,11.8,21.2,23.5c1.2,5,1.4,10.1,1.2,15.3c0,0.5-0.1,1-0.2,1.6c-0.3,1.3-0.9,1.9-2.4,1.9
	c-14.5-0.1-29,0-43.6,0C251.6,103.2,251,103.2,250.2,103.2z M250.2,92.1c7.5,0,14.7,0,22,0c-0.2-2.3-0.3-4.6-0.7-6.7
	c-0.8-3.6-1.7-7.2-2.8-10.6c-0.8-2.3-2.5-3.9-5-4.5c-3.5-0.9-6.4,0.3-8.7,3.6C251.4,79.4,250.8,85.7,250.2,92.1z"/>
<path class="st0" d="M159.2,140.7c-0.8,0-1.3,0-1.8,0c-9.5,0-19,0-28.5,0c-1.1,0-1.8-0.3-2.4-1.3c-4.2-7.3-8.5-14.5-12.7-21.7
	c-0.3-0.5-0.6-1-1-1.6c-0.5,0.7-0.9,1.2-1.2,1.7c-4.9,7.2-9.7,14.5-14.5,21.7c-0.6,0.9-1.2,1.3-2.3,1.2c-5.8-0.1-11.6,0-17.8,0
	c9.6-12.1,19-24,28.5-35.9c-9.3-14.5-18.6-29-27.9-43.5c0.4,0,0.9-0.1,1.3-0.1c9.8,0,19.6,0.1,29.5,0.1c1.3,0,2,0.4,2.6,1.5
	c4.1,7.2,8.3,14.5,12.6,21.9c0.4-0.5,0.8-1,1.1-1.4c4.8-6.9,9.6-13.7,14.4-20.7c0.7-1,1.4-1.3,2.6-1.3c5.9,0.1,11.8,0,18.1,0
	c-0.5,0.7-0.9,1.2-1.3,1.6c-8.9,10.7-17.7,21.4-26.6,32.1c-0.8,1-0.9,1.7-0.2,2.8c8.9,13.8,17.8,27.6,26.7,41.4
	C158.6,139.6,158.8,140,159.2,140.7z"/>
<path class="st0" d="M218.3,128c0,3.3,0,6.5,0,9.8c0,0.3-0.4,0.8-0.6,0.9c-8.7,3.4-17.6,5.3-26.9,3.1c-7.7-1.8-11.9-7.2-13.5-14.6
	c-0.8-3.7-1-7.5-1.1-11.3C176,102.5,176,89,176,75.6c0-0.5,0-1-0.1-1.6c-2.7,0-5.4,0-8,0c-3.7,0.1-3.7,0.1-3.7-3.6
	c0-2.6,0-5.2,0-7.8c0-0.1,0.1-0.2,0.1-0.3c3.8,0,7.5,0,11.5,0c0-0.3,0.1-0.8,0.1-1.2c-0.2-5.2-0.3-10.3-0.6-15.5
	c-0.1-1.2,0.2-1.9,1.5-2.3c7.6-3.1,15.2-6.4,22.7-9.5c1.6-0.7,4.5,1.3,4.4,3c-0.4,7-0.8,14-1.2,21c-0.1,1.5-0.2,2.9-0.3,4.6
	c4.9,0,9.7,0,14.6,0c0,3.9,0,7.7,0,11.5c-4.9,0-9.7,0-14.8,0c-0.1,1.5-0.2,3-0.2,4.6c0,13.8-0.1,27.7,0,41.5c0,1.8,0.2,3.6,0.4,5.4
	c0.4,3.3,2.1,4.9,5.4,5c3.1,0.2,6.1-0.1,8.8-1.8c0.4-0.2,0.8-0.4,1.1-0.5C218,128,218.1,128,218.3,128z"/>
<path class="st0" d="M310.2,61.4c8.8,0,17.6,0,26.4,0c0,4.2,0,8.5,0,13.2c3.1-5.1,6.7-9.4,11.9-12.1c5.2-2.7,10.7-2.9,16.5-2.6
	c-0.3,1.9-0.8,3.8-0.9,5.6c-0.2,5.9-0.3,11.7-0.3,17.6c0,2-1.6,2.4-2.7,3.4c-0.3,0.3-1.3,0-1.9-0.3c-6.9-3.5-14.8-2-19,3.6
	c-1.8,2.4-2.8,5.1-2.7,8.1c0.3,12.4,0.6,24.8,1,37.2c0.1,1.9,0.4,3.9,0.6,5.8c-9.7,0-19.3,0-28.9,0
	C310.2,114.4,310.2,87.9,310.2,61.4z"/>
<path class="st0" d="M624.9,197.9c-2.5,0-5.1,0-7.8,0c0-1,0-1.9,0-2.8c0.1-4.1,0.1-8.2,0.2-12.3c0-0.7-0.1-1.4-0.3-2
	c-0.5-2-1.4-2.9-3.2-3.2c-1.8-0.2-3.7,0.5-4.4,2.1c-0.7,1.7-1.1,3.6-1.2,5.5c-0.2,4.2-0.1,8.4-0.1,12.7c-2.4,0-5,0-7.7,0
	c0-7.9,0-15.9,0-23.8c2.5,0,5.1,0,7.7,0c0,1.1,0,2.1,0,3.6c2.3-2.8,4.9-4.4,8.3-4.5c3.5-0.1,6.1,1.4,7.8,4.8c0.5-0.5,0.8-1,1.2-1.4
	c2.9-3,6.4-3.9,10.4-3.1c3.6,0.8,5.7,3.2,5.8,7.1c0.1,3.7,0,7.5,0,11.2c0,2,0,4,0,6.1c-2.6,0-5.3,0-8,0c0.1-4.4,0.3-8.7,0.4-13
	c0-1.2-0.1-2.4-0.3-3.6c-0.4-2.4-2-3.7-4.2-3.8c-2.2-0.1-3.8,1.2-4.4,3.5c-0.2,0.9-0.3,1.9-0.3,2.8
	C624.9,188.5,624.9,193.2,624.9,197.9z"/>
<path class="st0" d="M477.8,16.4c0-5.4,0-10.6,0-15.8c2.2,0,4.5,0,6.8,0c0,12,0,24.2,0,36.4c-2.1,0-4.3,0-6.5,0c0.1-1.1,0.1-2,0.2-3
	c-0.1-0.1-0.3-0.2-0.4-0.4c-0.1,0.2-0.1,0.5-0.2,0.7c-2.4,4.9-11,4.5-13.6-0.5c-2.7-5.2-2.9-10.5-0.2-15.8
	C466.7,12.5,473.6,11.2,477.8,16.4z M478.2,25.1c-0.3-1.8-0.5-3.9-1.1-5.9c-0.5-1.9-2-2.9-3.6-2.8c-1.9,0.1-2.8,1.3-3.4,2.9
	c-1.1,2.8-1.4,5.8-0.9,8.7c0.3,1.8,0.6,3.7,1.5,5.3c1.1,2.1,3.6,2.3,5.2,0.5c0.6-0.7,1.2-1.7,1.4-2.6
	C477.7,29.2,477.9,27.3,478.2,25.1z"/>
<path class="st0" d="M426.4,15.9c0-5,0-10.2,0-15.4c2.2,0,4.4,0,6.7,0c0,12,0,24.1,0,36.3c-2.1,0-4.2,0-6.5,0
	c0.1-1.1,0.2-2.2,0.3-3.4c-0.3,0.2-0.4,0.3-0.5,0.4c-1.6,3-4.2,4-7.4,3.7c-3.4-0.3-5.8-2-7-5.1c-1.8-4.7-2-9.4,0.1-14
	c1.9-4.2,5.9-6.3,9.9-5.1C423.6,13.9,425,15.1,426.4,15.9z M417.4,25.6c0.4,2.2,0.5,4.2,1,6.1c0.5,2.1,1.9,3.3,3.4,3.3
	c2,0,3.2-1.3,3.7-2.9c1.4-4.2,1.5-8.5,0.1-12.7c-0.5-1.6-1.6-2.8-3.4-2.8c-1.9,0-3,1.2-3.4,2.8C418.1,21.3,417.8,23.6,417.4,25.6z"
	/>
<path class="st0" d="M265.1,3.9c0,3.5,0.1,7,0,10.5c-0.1,4,0,7.9-0.5,11.8c-1,7.3-4.3,10.4-11.6,11.3c-3.3,0.4-6.7,0.1-9.8-1.1
	c-4.3-1.6-6.9-4.8-7.1-9.4c-0.2-5.4-0.1-10.8-0.1-16.1c0-2.3,0-4.6,0-7c2.4,0,4.9,0,7.6,0c-0.1,2-0.3,4-0.3,6c0,5.1,0,10.2,0,15.3
	c0,0.8,0.2,1.7,0.4,2.5c1.2,5.7,6.9,8.6,12.3,6.2c2-0.9,3.3-2.5,3.8-4.5c0.7-2.6,1.2-5.3,1.3-7.9c0.1-5.2-0.1-10.3-0.1-15.5
	c0-0.7,0-1.4,0-2.1C262.4,3.9,263.8,3.9,265.1,3.9z"/>
<path class="st0" d="M278.9,36.9c-2.1,0-4.3,0-6.5,0c0-7.7,0-15.3,0-23.1c2.1,0,4.2,0,6.5,0c0,1,0,2,0,3.4c0.6-0.6,0.9-1,1.2-1.3
	c2.5-2.8,5.6-3.5,9.1-2.5c2.8,0.8,4.5,3.2,4.6,6.7c0.1,4.6,0,9.3,0,13.9c0,0.9,0,1.8,0,2.8c-2.3,0-4.5,0-6.9,0
	c0.1-0.9,0.1-1.8,0.1-2.6c0.1-4.2,0.2-8.3,0.2-12.5c0-0.8-0.3-1.6-0.6-2.3c-0.6-1.4-1.7-2.1-3.2-2.2c-1.5-0.1-2.8,0.5-3.3,1.9
	c-0.6,1.7-1,3.5-1.1,5.2C278.8,28.5,278.9,32.6,278.9,36.9z"/>
<path class="st0" d="M561.4,198c-2.5,0-5,0-7.5,0c-0.1,0-0.3-0.1-0.4-0.1c0-12.6,0-25.1,0-37.6c2.6,0,5.3,0,7.9,0
	C561.4,172.8,561.4,185.3,561.4,198z"/>
<path class="st0" d="M450.4,34.4c-2.2,2.9-5.1,3.8-8.5,3c-2.3-0.5-4-1.9-4.5-4.2c-0.5-2.5-0.3-5.1,2.1-6.7c1.4-0.9,3-1.5,4.6-2
	c1.4-0.5,3-0.8,4.4-1.3c1.8-0.6,2.3-1.8,1.7-3.6c-0.8-2.4-3.2-3.5-6.1-2.7c-1.5,0.4-2.9,1.3-4.4,2c-1.1-1.9-1-2.5,1.1-3.7
	c3.4-2,7.1-2.7,10.9-1.7c3.1,0.9,5,3,5.1,6.3c0.1,4,0,8,0,12c0,1.7,0,3.4,2.3,3.6c0.2,0,0.5,0.4,0.5,0.5c-0.1,0.3-0.3,0.7-0.5,0.8
	C455.5,38.6,452.5,37.9,450.4,34.4z M450.3,24.7c-1.4,0.6-2.7,1-4,1.7c-2.3,1.2-3.2,4.6-1.8,6.9c0.7,1.1,1.7,1.6,3,1.3
	c1.7-0.4,2.7-1.6,2.8-3.2C450.4,29.1,450.3,27,450.3,24.7z"/>
<path class="st0" d="M355.6,25.4c-4.5,0-9.1,0-13.7,0c-0.2,2.4,0.2,4.5,1.3,6.4c1.1,2,2.9,3.2,5.2,2.9c2.1-0.3,4.1-1,6.2-1.6
	c-0.3,1.1-0.4,2.3-1.7,3.1c-7.6,4.8-17.6-0.3-18.3-9.2c-0.2-2.8,0.1-5.5,1.3-8c2.7-5.6,10.8-7.8,15.9-4.2
	C354.8,16.7,356.3,21,355.6,25.4z M349.6,23.2c-0.5-2.2-0.7-4.2-1.4-6c-0.3-0.8-1.5-1.7-2.4-1.8c-0.8-0.1-2,0.7-2.5,1.4
	c-1.2,1.9-1.5,4.1-1.4,6.4C344.4,23.2,346.7,23.2,349.6,23.2z"/>
<path class="st0" d="M393,15.4c-0.3,1.1-0.5,2.2-0.9,3.3c-0.1,0.3-0.5,0.8-0.7,0.8c-0.4-0.1-0.8-0.4-1-0.8c-1.3-2.5-3-3.6-5.2-3.2
	c-1.3,0.2-2.5,0.8-2.8,2.2c-0.3,1.4,0.4,2.5,1.6,3.1c2,0.9,4.1,1.7,6,2.7c2.5,1.3,3.8,3.4,3.7,6.3c-0.1,3-1.3,5.3-4,6.7
	c-2.8,1.4-5.8,1.6-8.8,0.6c-1.1-0.3-2.1-0.9-3.2-1.3c0.2-1.3,0.3-2.4,0.6-3.4c0.1-0.4,0.4-0.9,0.6-1.3c0.4,0.3,0.9,0.5,1.1,0.9
	c1.5,2.4,3.6,3.4,6.1,3c1.4-0.2,2.4-0.8,2.7-2.3c0.3-1.4-0.5-2.3-1.6-2.9c-1.6-0.8-3.4-1.5-5-2.3c-3.6-1.9-5-4.8-4.2-8.6
	c0.5-2.1,1.7-3.6,3.5-4.6C385.1,12.3,389.9,12.8,393,15.4z"/>
<path class="st0" d="M332.5,13.9c-3.1,7.7-6.1,15.3-9.2,23.1c-1.2,0-2.7,0-4.1,0c-0.3,0-0.8-0.3-0.9-0.6c-2.7-7.5-5.4-15-8.1-22.6
	c2.5,0,4.8,0,7.3,0c1.7,5.4,3.5,11,5.3,16.5c0.2,0,0.3,0,0.5,0c1.9-5.5,3.8-11.1,5.7-16.5C330.1,13.9,331.3,13.9,332.5,13.9z"/>
<path class="st0" d="M374.7,13.3c0,2.4,0,4.6,0,6.9c-0.8-0.2-1.4-0.5-2-0.6c-3-0.5-5.4,1.5-5.5,4.6c-0.1,4.2,0,8.3,0,12.6
	c-2,0-4.3,0-6.6,0c0-7.6,0-15.3,0-23c2,0,4.1,0,6.3,0c0,1.7,0,3.5,0,5.3C368.6,16,370.4,13,374.7,13.3z"/>
<path class="st0" d="M688.6,197.9c-2.5,0-5.3,0-8,0c0-7.9,0-15.9,0-23.9c2.7,0,5.4,0,8,0C688.6,182.1,688.6,190,688.6,197.9z"/>
<path class="st0" d="M398.6,13.9c2.3,0,4.5,0,6.8,0c0,7.7,0,15.3,0,23c-2.3,0-4.6,0-6.8,0C398.6,29.2,398.6,21.6,398.6,13.9z"/>
<path class="st0" d="M306.6,36.9c-2.2,0-4.4,0-6.7,0c0-7.7,0-15.3,0-23c2.2,0,4.4,0,6.7,0C306.6,21.5,306.6,29.2,306.6,36.9z"/>
<path class="st0" d="M684.6,168.3c-2.5,0-4.5-1.7-4.5-3.9c0-2.2,1.9-3.9,4.5-4c2.6,0,4.5,1.7,4.5,3.9
	C689.1,166.5,687.1,168.3,684.6,168.3z"/>
<path class="st0" d="M303.2,8.2c-2.1,0-3.8-1.7-3.7-3.8c0-2.1,1.7-3.7,3.8-3.7c2.1,0,3.7,1.7,3.7,3.8C307,6.6,305.4,8.3,303.2,8.2z"
	/>
<path class="st0" d="M402.1,8.2c-2.1,0-3.8-1.6-3.8-3.8c0-2.1,1.6-3.8,3.8-3.8c2.1,0,3.8,1.7,3.8,3.8C405.9,6.5,404.2,8.2,402.1,8.2
	z"/>
</svg>
