<?xml version="1.0" encoding="utf-8"?>
<!-- Generator: Adobe Illustrator 23.0.0, SVG Export Plug-In . SVG Version: 6.00 Build 0)  -->
<svg version="1.1" id="Layer_1" xmlns="http://www.w3.org/2000/svg" xmlns:xlink="http://www.w3.org/1999/xlink" x="0px" y="0px"
	 viewBox="0 0 485 118.6" style="enable-background:new 0 0 485 118.6;" xml:space="preserve">
<style type="text/css">
	.st0{fill:#F4A72C;}
	.st1{fill:#DB2328;}
	.st2{fill:#1D1D1B;}
</style>
<g>
	<g>
		<g>
			<ellipse class="st0" cx="59.3" cy="59.3" rx="54.9" ry="54.9"/>
			<path class="st1" d="M59.3,0C26.5,0,0,26.5,0,59.3s26.5,59.3,59.3,59.3s59.3-26.5,59.3-59.3S92.1,0,59.3,0z M59.3,114.1
				c-30.3,0-54.9-24.6-54.9-54.9S28.9,4.3,59.3,4.3c30.3,0,54.9,24.6,54.9,54.9S89.7,114.1,59.3,114.1z"/>
		</g>
		<path class="st1" d="M59.3,7.8c-28.4,0-51.4,23-51.4,51.4s23,51.4,51.4,51.4s51.4-23,51.4-51.4C110.9,30.8,87.8,7.8,59.3,7.8z
			 M62.8,78.4v-2.8L77.4,70c1.6-1.2,1.9-2.8,2-5.1l0,0V32.7h-6.9v31.9h-9.7l0.1-40.9H56l-0.1,40.9h-9.7V32.7h-6.9v31.9v0.3
			c0,2.2,0.4,2.9,1.5,4.2l15,6.3v3.1H14C11.5,72.5,10,66.1,10,59.2C10,32.1,32.1,10,59.2,10s49.2,22.1,49.2,49.2
			c0,6.8-1.4,13.2-3.8,19.1L62.8,78.4z"/>
		<g>
			<polygon class="st0" points="64.3,97.5 64.3,84.8 67,84.8 67,95.4 73.4,95.4 73.4,97.5 			"/>
			<path class="st0" d="M53.1,84.7h-2.7l-5,12.9h2.7l1.1-2.9h5.1l1.1,2.9h2.8L53.1,84.7z M49.9,92.4l1.7-4.8l1.7,4.8H49.9z"/>
		</g>
	</g>
	<g>
		<path class="st2" d="M144.3,94.5c0,0.9,0,1.4-0.1,1.9c-0.1,0.3-0.2,0.7-0.5,0.9c-0.3,0.2-0.8,0.3-1.4,0.3s-1.1-0.1-1.4-0.4
			c-0.3-0.2-0.5-0.7-0.7-1.1c0-0.2-0.1-0.9-0.1-1.9v-5.8h-2.2v5.8c0,1.2,0.1,2.1,0.2,2.7c0.1,0.4,0.3,0.9,0.7,1.2
			c0.3,0.4,0.8,0.7,1.3,0.9c0.5,0.2,1.3,0.3,2.3,0.3c0.9,0,1.5-0.1,2.1-0.3c0.5-0.2,1-0.5,1.3-0.9c0.3-0.3,0.5-0.8,0.7-1.3
			s0.2-1.4,0.2-2.7v-5.7h-2.2L144.3,94.5z"/>
		<polygon class="st2" points="155.4,95.7 151,88.5 148.9,88.5 148.9,99.3 150.9,99.3 150.9,92.3 155.2,99.3 157.4,99.3 157.4,88.5 
			155.4,88.5 		"/>
		<polygon class="st2" points="159.6,99.3 161.8,99.3 161.9,88.5 159.7,88.5 		"/>
		<polygon class="st2" points="167.9,96.6 165.2,88.5 162.9,88.5 166.7,99.3 169,99.3 172.9,88.6 170.5,88.5 		"/>
		<polygon class="st2" points="176.2,94.6 181.5,94.6 181.5,92.7 176.2,92.7 176.2,90.3 182,90.3 182,88.6 174,88.6 174,99.3 
			182.2,99.3 182.2,97.5 176.1,97.5 		"/>
		<path class="st2" d="M191.2,95.5c-0.3-0.3-0.7-0.7-1.2-0.9c1-0.1,1.6-0.4,2.2-1c0.4-0.5,0.8-1.2,0.8-2c0-0.7-0.1-1.2-0.4-1.7
			s-0.8-0.9-1.3-1.1c-0.5-0.2-1.3-0.3-2.5-0.3h-4.6v10.8h2.2v-4.5h0.4c0.5,0,0.9,0,1.1,0.1c0.2,0.1,0.4,0.2,0.7,0.4
			c0.2,0.2,0.5,0.8,1.1,1.6l1.5,2.4h2.6l-1.3-2.1C191.9,96.5,191.5,95.8,191.2,95.5z M187.8,93.2h-1.6v-2.7h1.7c0.9,0,1.4,0,1.6,0
			c0.3,0.1,0.7,0.2,0.9,0.4c0.2,0.2,0.3,0.5,0.3,0.9s-0.1,0.5-0.2,0.8c-0.1,0.2-0.3,0.3-0.7,0.4C189.5,93.1,188.9,93.2,187.8,93.2z"
			/>
		<path class="st2" d="M201.5,93.4c-0.5-0.2-1.3-0.5-2.3-0.8c-1.1-0.2-1.7-0.5-2-0.8c-0.2-0.2-0.3-0.4-0.3-0.7
			c0-0.3,0.1-0.5,0.3-0.7c0.3-0.2,0.9-0.4,1.5-0.4c0.7,0,1.1,0.1,1.4,0.3c0.3,0.2,0.5,0.7,0.5,1.2l2.2-0.1c0-1-0.4-1.7-1.1-2.4
			c-0.7-0.5-1.7-0.9-3.1-0.9c-0.9,0-1.5,0.1-2.1,0.3c-0.5,0.2-1.1,0.7-1.3,1.1c-0.3,0.4-0.4,1-0.4,1.5c0,0.9,0.3,1.5,1,2.2
			c0.4,0.4,1.3,0.8,2.5,1.1c0.9,0.2,1.5,0.4,1.7,0.4c0.3,0.1,0.7,0.3,0.8,0.4c0.1,0.2,0.2,0.4,0.2,0.7c0,0.4-0.2,0.8-0.5,1
			c-0.3,0.3-0.9,0.4-1.6,0.4c-0.7,0-1.2-0.2-1.5-0.5c-0.4-0.3-0.7-0.9-0.8-1.5l-2.1,0.2c0.1,1.2,0.5,2.1,1.3,2.7s1.7,1,3.2,1
			c0.9,0,1.7-0.1,2.3-0.4c0.7-0.2,1.1-0.7,1.4-1.2c0.3-0.5,0.5-1.1,0.5-1.7s-0.1-1.3-0.4-1.7C202.4,94.1,202,93.7,201.5,93.4z"/>
		<polygon class="st2" points="204.9,99.4 207.1,99.4 207.1,88.6 204.9,88.6 		"/>
		<path class="st2" d="M216.8,89.8c-0.4-0.4-1-0.8-1.6-1c-0.4-0.1-1.2-0.2-2.1-0.2h-3.9v10.8h4.2c0.8,0,1.4-0.1,2-0.2
			c0.7-0.2,1.2-0.5,1.5-0.9c0.5-0.4,0.9-1.1,1.2-1.9c0.2-0.7,0.3-1.4,0.3-2.3c0-1-0.1-1.9-0.3-2.5C217.6,90.9,217.3,90.2,216.8,89.8
			z M215.7,96c-0.1,0.5-0.3,0.9-0.5,1.1c-0.2,0.2-0.5,0.3-0.9,0.4c-0.2,0.1-0.8,0.1-1.3,0.1h-1.6v-7.1h1c0.9,0,1.5,0,1.7,0.1
			c0.4,0.1,0.8,0.2,1,0.5c0.2,0.2,0.4,0.5,0.7,1.1c0.1,0.4,0.2,1.1,0.2,2S215.8,95.5,215.7,96z"/>
		<path class="st2" d="M223.2,88.6l-4.3,10.8h2.3l0.9-2.4h4.3l1,2.4h2.4l-4.3-10.8H223.2z M222.8,95.1l1.4-4l1.5,4H222.8z"/>
		<path class="st2" d="M238.6,89.8c-0.4-0.4-1-0.8-1.6-1c-0.4-0.1-1.2-0.2-2.1-0.2h-3.9v10.8h4.2c0.8,0,1.4-0.1,2-0.2
			c0.7-0.2,1.2-0.5,1.5-0.9c0.5-0.4,0.9-1.1,1.2-1.9c0.2-0.7,0.3-1.4,0.3-2.3c0-1-0.1-1.9-0.3-2.5C239.3,90.9,239,90.3,238.6,89.8z
			 M237.5,96c-0.1,0.4-0.3,0.9-0.5,1.1c-0.2,0.2-0.5,0.3-0.9,0.4c-0.2,0.1-0.8,0.1-1.3,0.1h-1.6v-7.1h1c0.9,0,1.5,0,1.7,0.1
			c0.4,0.1,0.8,0.2,1,0.5c0.2,0.2,0.4,0.5,0.7,1.1c0.1,0.4,0.2,1.1,0.2,2C237.7,94.8,237.7,95.6,237.5,96z"/>
		<path class="st2" d="M248.6,88.7l-4.3,10.8h2.3l0.9-2.4h4.3l1,2.4h2.4l-4.3-10.8H248.6z M248.2,95.1l1.4-4l1.5,4H248.2z"/>
		<path class="st2" d="M262.7,94.6c0,0.9,0,1.4-0.1,1.9c-0.1,0.3-0.2,0.7-0.5,1c-0.3,0.2-0.8,0.3-1.4,0.3c-0.7,0-1.1-0.1-1.4-0.4
			c-0.3-0.2-0.5-0.7-0.7-1.1c0-0.2-0.1-0.9-0.1-1.9v-5.8h-2.2v5.8c0,1.2,0.1,2.1,0.2,2.7c0.1,0.4,0.3,0.9,0.7,1.2
			c0.3,0.4,0.8,0.7,1.3,0.9c0.5,0.2,1.3,0.3,2.3,0.3c0.9,0,1.5-0.1,2.1-0.3s1-0.5,1.3-0.9s0.5-0.9,0.7-1.3c0.1-0.5,0.2-1.4,0.2-2.7
			v-5.7h-2.2L262.7,94.6z"/>
		<polygon class="st2" points="266.4,90.6 269.7,90.6 269.7,99.5 271.8,99.5 271.9,90.6 275.1,90.6 275.1,88.7 266.4,88.7 		"/>
		<path class="st2" d="M281.2,88.5c-0.9,0-1.6,0.1-2.3,0.4c-0.5,0.2-1,0.5-1.4,1c-0.4,0.4-0.8,0.9-1,1.5c-0.3,0.8-0.5,1.6-0.5,2.7
			c0,1.7,0.4,3.1,1.4,4c1,1,2.2,1.4,3.8,1.5c1.6,0,2.8-0.5,3.8-1.5c1-1,1.4-2.3,1.4-4c0-1.7-0.4-3.2-1.4-4.2
			C284.1,89,282.8,88.5,281.2,88.5z M283.4,96.9c-0.5,0.7-1.3,1-2.2,1s-1.6-0.3-2.2-1s-0.9-1.5-0.9-2.7c0-1.2,0.3-2.2,0.9-2.8
			s1.3-0.9,2.2-0.9s1.6,0.3,2.2,0.9c0.5,0.7,0.8,1.5,0.8,2.7C284.2,95.4,283.9,96.2,283.4,96.9z"/>
		<polygon class="st2" points="283.2,85.9 281,85.9 279.9,88 281.2,88 		"/>
		<polygon class="st2" points="294.7,95.9 290.3,88.7 288.2,88.7 288.2,99.5 290.2,99.5 290.2,92.4 294.5,99.5 296.8,99.5 
			296.8,88.7 294.7,88.7 		"/>
		<path class="st2" d="M303.8,88.6c-0.9,0-1.6,0.1-2.3,0.4c-0.5,0.2-1,0.5-1.4,1c-0.4,0.4-0.8,0.9-1,1.5c-0.3,0.8-0.5,1.6-0.5,2.7
			c0,1.7,0.4,3.1,1.4,4c1,1,2.2,1.5,3.8,1.5c1.6,0,2.8-0.4,3.8-1.4s1.4-2.3,1.4-4c0-1.7-0.4-3.2-1.4-4.2
			C306.7,89,305.4,88.6,303.8,88.6z M306,96.9c-0.5,0.7-1.3,0.9-2.2,0.9c-0.9,0-1.5-0.3-2.2-1c-0.5-0.7-0.9-1.5-0.9-2.7
			s0.3-2.2,0.9-2.8s1.3-0.9,2.2-0.9c0.9,0,1.6,0.3,2.2,0.9c0.5,0.7,0.8,1.5,0.8,2.7C306.8,95.4,306.5,96.2,306,96.9z"/>
		<polygon class="st2" points="315.9,96.1 314,88.7 310.8,88.7 310.8,99.5 312.7,99.5 312.7,91 314.9,99.5 317,99.5 319.2,91.1 
			319.2,99.5 321.1,99.5 321.1,88.8 317.9,88.8 		"/>
		<path class="st2" d="M326.5,88.8l-4.3,10.8h2.3l0.9-2.4h4.4l1,2.4h2.4l-4.3-10.8H326.5z M326.1,95.3l1.4-4l1.5,4H326.1z"/>
		<polygon class="st2" points="340.2,88.9 338,88.9 337.9,99.6 345.5,99.6 345.5,97.8 340,97.8 		"/>
		<path class="st2" d="M350.2,88.8l-4.3,10.8h2.3l0.9-2.4h4.4l1,2.4h2.4l-4.3-10.8H350.2z M349.9,95.4l1.4-4l1.5,4H349.9z"/>
		<polygon class="st2" points="356.1,90.7 359.3,90.7 359.3,99.6 361.5,99.6 361.5,90.7 364.6,90.7 364.6,88.8 356.1,88.8 		"/>
		<polygon class="st2" points="365.9,99.6 368.1,99.6 368.1,88.8 365.9,88.8 		"/>
		<polygon class="st2" points="376.7,96 372.4,88.8 370.3,88.8 370.2,99.6 372.3,99.6 372.3,92.6 376.6,99.6 378.8,99.6 378.8,88.8 
			376.7,88.8 		"/>
		<path class="st2" d="M385.9,88.7c-0.9,0-1.6,0.1-2.3,0.4c-0.5,0.2-1,0.5-1.4,1c-0.4,0.4-0.8,1-1,1.5c-0.3,0.8-0.5,1.6-0.5,2.7
			c0,1.7,0.4,3.1,1.4,4c1,1,2.2,1.4,3.8,1.5c1.6,0,2.8-0.5,3.8-1.4c1-1,1.4-2.3,1.4-4c0-1.7-0.4-3.2-1.4-4.2
			C388.8,89.1,387.5,88.7,385.9,88.7z M388,97c-0.5,0.7-1.3,0.9-2.2,0.9c-0.9,0-1.6-0.3-2.2-1s-0.9-1.5-0.9-2.7
			c0-1.2,0.3-2.2,0.9-2.7c0.5-0.7,1.3-0.9,2.2-0.9c0.9,0,1.6,0.3,2.2,0.9c0.5,0.5,0.8,1.5,0.8,2.7C388.9,95.5,388.7,96.5,388,97z"/>
		<path class="st2" d="M396,88.9l-4.3,10.8h2.3l0.9-2.4h4.3l1,2.4h2.4l-4.3-10.8H396z M395.6,95.4l1.4-4l1.5,4H395.6z"/>
		<polygon class="st2" points="408.9,96.2 407,88.9 403.7,88.9 403.7,99.6 405.7,99.7 405.7,91.2 407.9,99.7 410,99.7 412.1,91.2 
			412.1,99.7 414.1,99.7 414.1,88.9 410.8,88.9 		"/>
		<polygon class="st2" points="418.5,94.9 423.9,94.9 423.9,93.2 418.5,93.1 418.5,90.8 424.3,90.8 424.3,88.9 416.3,88.9 
			416.3,99.7 424.5,99.7 424.5,97.9 418.5,97.9 		"/>
		<path class="st2" d="M433.4,95.9c-0.3-0.3-0.7-0.7-1.2-0.9c1-0.1,1.6-0.4,2.2-1c0.4-0.5,0.8-1.2,0.8-2c0-0.7-0.1-1.2-0.4-1.7
			s-0.8-0.9-1.3-1c-0.5-0.2-1.3-0.3-2.5-0.3h-4.6v10.8h2.2v-4.5h0.4c0.5,0,0.9,0,1.1,0.1c0.2,0.1,0.4,0.2,0.7,0.4
			c0.2,0.2,0.5,0.8,1.2,1.6l1.5,2.3h2.6l-1.3-2.1C434.2,96.8,433.8,96.2,433.4,95.9z M430.2,93.5h-1.6v-2.7h1.7c0.9,0,1.4,0,1.6,0
			c0.3,0.1,0.7,0.2,0.8,0.4c0.2,0.2,0.3,0.5,0.3,0.9s-0.1,0.5-0.2,0.8c-0.1,0.2-0.3,0.3-0.7,0.4C431.8,93.4,431.1,93.5,430.2,93.5z"
			/>
		<polygon class="st2" points="437.2,99.7 439.3,99.7 439.3,88.9 437.2,88.9 		"/>
		<path class="st2" d="M447.4,97.5c-0.4,0.3-0.9,0.5-1.5,0.5c-0.8,0-1.4-0.3-2-0.9c-0.4-0.5-0.8-1.5-0.8-2.9c0-1.3,0.2-2.2,0.8-2.8
			c0.5-0.5,1.2-0.9,2-0.9c0.5,0,1.1,0.2,1.4,0.5c0.4,0.3,0.7,0.8,0.8,1.3l2.2-0.5c-0.2-0.9-0.7-1.5-1.1-2c-0.9-0.8-1.9-1.2-3.2-1.2
			c-1.5,0-2.7,0.5-3.7,1.5c-0.9,1-1.4,2.4-1.4,4.2c0,1.7,0.4,3.1,1.4,4c0.9,1,2.1,1.4,3.5,1.5c1.2,0,2.1-0.3,2.8-0.9
			c0.8-0.5,1.3-1.4,1.6-2.6l-2.1-0.7C448.2,96.6,447.9,97.1,447.4,97.5z"/>
		<path class="st2" d="M455.4,88.9l-4.3,10.8h2.3l0.9-2.4h4.4l1,2.4h2.4l-4.3-10.8H455.4z M455.1,95.5l1.4-4l1.5,4H455.1z"/>
		<polygon class="st2" points="469.7,96.2 465.3,88.9 463.3,88.9 463.3,99.7 465.2,99.7 465.2,92.7 469.6,99.7 471.8,99.7 471.8,89 
			469.8,89 		"/>
		<path class="st2" d="M479.5,89h-2.3L473,99.8h2.3l0.9-2.4h4.3l1,2.4h2.4L479.5,89z M476.8,95.5l1.4-4l1.5,4H476.8z"/>
	</g>
	<g>
		<path class="st1" d="M479.3,25.2c3.2,0,5.7-2.4,5.7-5.6c0-3.1-2.5-5.5-5.6-5.5c-3.2,0-5.7,2.4-5.7,5.5
			C473.7,22.8,476.3,25.2,479.3,25.2z M479.3,15.3c2.4,0,4.3,2,4.3,4.5c0,2.4-1.9,4.4-4.2,4.4c-2.4,0-4.3-2-4.3-4.4
			C475.2,17.3,476.9,15.3,479.3,15.3z"/>
		<path class="st1" d="M478.6,20.4h0.5c0.8,0,1.1,0.2,1.1,0.9c0.2,0.7,0.2,1.1,0.4,1.3h1.3c-0.1-0.2-0.2-0.5-0.4-1.3
			c-0.2-0.8-0.4-1.2-1-1.3v-0.2c0.7-0.2,1.1-0.7,1.1-1.3c0-0.5-0.2-1-0.5-1.2c-0.3-0.2-0.9-0.4-1.9-0.4c-0.9,0-1.6,0.1-2.1,0.2v5.5
			h1.3v-2.1H478.6z M478.6,17.9c0.1,0,0.3-0.1,0.7-0.1c0.8,0,1.2,0.3,1.2,0.9s-0.5,0.8-1.3,0.8h-0.5V17.9z"/>
		<path class="st1" d="M173.6,48.1c0,4.7-0.2,8.1-0.5,10.2s-1.4,3.7-3.2,5.1c-1.7,1.4-4.4,2.1-7.8,2.1c-3.4,0-6-0.8-8-2.3
			c-2-1.4-3.2-3.4-3.7-5.9c-0.3-1.5-0.4-4.8-0.4-9.9V15h-12v31.9c0,6.7,0.3,11.7,1.2,15.2c0.5,2.3,1.6,4.5,3.4,6.7
			c1.7,2.1,4,3.8,7,5.1c2.9,1.3,7.3,2,13,2c4.7,0,8.5-0.5,11.5-1.7c2.9-1.2,5.2-2.8,7-4.8c1.7-2.1,2.9-4.5,3.6-7.5
			c0.7-2.9,1-8,1-15.2V15.2h-12V48.1z"/>
		<polygon class="st1" points="234.6,55.1 210.2,15.1 198.5,15.1 198.4,74.8 209.6,74.8 209.6,35.9 233.7,74.8 245.8,74.8 
			245.9,15.2 234.6,15.2 		"/>
		<path class="st1" d="M275.1,15.2l-23.4,59.6h12.8l4.9-13.5h23.9l5.2,13.5h13.1l-23.8-59.8L275.1,15.2z M273.2,51.3l8.1-22.2
			l8.2,22.2H273.2z"/>
		<path class="st1" d="M352.8,48.4c0,4.7-0.2,8.1-0.5,10.2c-0.3,2.1-1.4,3.7-3.2,5.1c-1.7,1.4-4.4,2.1-7.8,2.1c-3.4,0-6-0.8-8-2.2
			c-2-1.5-3.2-3.4-3.7-5.9c-0.3-1.5-0.4-4.8-0.4-9.9V15.4h-12v31.9c0,6.7,0.3,11.7,1.2,15.2c0.5,2.3,1.6,4.5,3.4,6.7
			c1.7,2.1,4,3.8,7,5.1c2.9,1.3,7.3,2,13,2c4.7,0,8.5-0.5,11.5-1.7c2.9-1.2,5.2-2.8,7-4.8c1.7-2.1,2.9-4.5,3.6-7.5
			c0.7-2.9,1-8,1-15.2V15.6h-12V48.4z"/>
		<polygon class="st1" points="391.4,15.8 379.4,15.8 379.3,75 421.3,75.2 421.3,65.1 391.4,65 		"/>
		<path class="st1" d="M447,15.5l-23.4,59.6h12.8l4.9-13.5h23.9l5.2,13.5h13.1l-23.8-59.8L447,15.5z M445,51.6l8.1-22.2l8.2,22.2
			H445z"/>
	</g>
</g>
</svg>
