<?xml version="1.0" encoding="utf-8"?>
<svg version="1.1" id="Capa_1" xmlns="http://www.w3.org/2000/svg" xmlns:xlink="http://www.w3.org/1999/xlink" x="0px" y="0px"
	 viewBox="0 0 238 60" style="enable-background:new 0 0 238 60;" xml:space="preserve">
<style type="text/css">
	.st0{fill:none;}
	.st1{fill:#FFFFFF;}
	.st2{fill:#E30613;}
</style>
<line class="st0" x1="112.9" y1="581.6" x2="112.9" y2="581.6"/>
<line class="st0" x1="321.4" y1="581.6" x2="321.4" y2="581.6"/>
<g>
	<polygon class="st1" points="19,39.3 19,39.3 19,39.3 19,39.3 19,39.3 	"/>
</g>
<g>
	<polygon class="st1" points="19.2,21.3 18.7,20.4 19.7,20.4 36.7,20.4 36.7,1.3 1.2,1.3 1.2,21.6 1.2,21.6 1.3,22.5 1.3,23.4 
		1.4,24.3 1.6,25.1 1.8,26 2,26.8 2.3,27.7 2.6,28.5 3,29.2 3.4,30 3.8,30.8 4.3,31.5 4.8,32.2 5.3,32.8 5.9,33.5 6.4,34.1 
		7.1,34.7 7.7,35.2 8.4,35.8 9.1,36.3 9.8,36.7 10.5,37.2 11.3,37.6 12.1,37.9 12.9,38.2 13.7,38.5 14.5,38.7 15.4,38.9 16.3,39.1 
		17.2,39.2 18.1,39.3 19,39.3 19,39.3 19,39.3 19,39.3 19,39.3 19,39.3 19.9,39.3 20.8,39.2 21.7,39.1 22.5,38.9 23.4,38.7 
		24.2,38.5 25.1,38.2 25.9,37.9 26.7,37.6 27.4,37.2 27.5,37.1 	"/>
</g>
<g>
	<line class="st0" x1="19" y1="40.5" x2="19" y2="40.5"/>
</g>
<g>
	<polyline class="st0" points="19,39.3 19,39.3 19,39.3 19,39.3 	"/>
</g>
<g>
	<polygon class="st1" points="30.1,39.5 39.5,57.4 48.9,39.5 48.9,39.5 58.3,21.6 39.5,21.6 20.7,21.6 30.1,39.5 29.6,39.8 
		29.6,39.8 	"/>
</g>
<g>
	<rect class="st2" width="60" height="60"/>
	<g>
		<path class="st1" d="M36.9,20.4v-19H1.5l0.1,21.5C2.3,32,9.9,39.3,19.3,39.3c3,0,5.9-0.8,8.4-2.1l-8.8-16.8H36.9z"/>
		<polygon class="st1" points="37.1,21.6 20.9,21.6 28.8,36.5 39.7,57.4 58.5,21.6 		"/>
	</g>
</g>
<g>
	<rect x="79" y="55.2" class="st2" width="159" height="4.8"/>
</g>
<g>
	<rect x="116.7" y="3.7" class="st2" width="3.9" height="3.6"/>
	<rect x="182.1" y="3.7" class="st2" width="3.9" height="3.6"/>
	<path class="st2" d="M159.4,16.3c0-1.1,0.2-1.9,0.7-2.4c0.6-0.8,1.6-1.1,2.9-1.1h0.6l0.5,0v-4h-0.8c-0.8,0-1.6,0.2-2.2,0.6
		c-0.6,0.4-1.3,1.2-1.9,2.4V9.2h-3.7V24h3.9V16.3z"/>
	<path class="st2" d="M103.5,15.5c0-1.1,0.3-1.9,0.9-2.5c0.6-0.6,1.3-0.9,2.2-0.9c1.1,0,1.8,0.3,2.2,1.1c0.2,0.4,0.3,1.1,0.3,1.9v9
		h3.9V13.7c0-1.6-0.5-2.8-1.4-3.7s-2.2-1.3-3.7-1.3c-0.9,0-1.8,0.2-2.5,0.6c-0.7,0.4-1.4,1.1-2,2V9.1h-3.7v0V24h3.9V15.5z"/>
	<path class="st2" d="M232.1,4l0,7.1c-0.5-0.7-0.9-1.2-1.4-1.6c-0.5-0.3-1-0.6-1.7-0.7c-0.4-0.1-0.8-0.1-1.2-0.1
		c-1.8,0-3.2,0.6-4.3,1.9c-1.2,1.4-1.9,3.3-1.9,5.8c0,2.2,0.5,4.1,1.5,5.5c1.1,1.6,2.7,2.5,4.8,2.5c0.4,0,0.8,0,1.1-0.1
		c0.5-0.1,0.9-0.2,1.3-0.4c0.8-0.4,1.5-1,1.9-1.7V24h3.8V4H232.1z M231.4,19.9c-0.6,0.8-1.4,1.3-2.5,1.3c0,0-0.1,0-0.1,0
		c-1.1,0-2-0.5-2.6-1.6c-0.4-0.8-0.6-1.8-0.6-2.9c0-1.3,0.2-2.4,0.7-3.1c0.6-0.9,1.4-1.4,2.6-1.4c1.2,0,2.1,0.5,2.7,1.5
		c0.5,0.8,0.7,1.9,0.7,3.3C232.2,18.1,232,19.1,231.4,19.9z"/>
	<path class="st2" d="M91.5,17.2c0,1.3-0.3,2.2-1,2.8c-0.6,0.6-1.7,1-3.1,1c-1.1,0-1.9-0.3-2.6-1c-0.7-0.7-1-1.7-1-3V3.9h-4.2v13.3
		c0,2,0.5,3.7,1.6,4.9c0.8,0.9,1.9,1.6,3.2,2c0.9,0.3,2,0.5,3.2,0.5c2.6,0,4.6-0.6,6.1-1.9c1.4-1.3,2.2-3.1,2.2-5.7V3.9h-4.2V17.2z"
		/>
	<polygon class="st2" points="132.4,24 137.8,9.1 133.6,9.1 130.4,20.1 127.3,9.1 123,9.1 128.3,24 	"/>
	<path class="st2" d="M199.5,24h3.8V4h-3.9l0,7.1c-0.5-0.7-0.9-1.2-1.4-1.6c-0.5-0.3-1-0.6-1.7-0.7c-0.4-0.1-0.8-0.1-1.2-0.1
		c-1.8,0-3.2,0.6-4.3,1.9c-1.2,1.4-1.9,3.3-1.9,5.8c0,2.2,0.5,4.1,1.5,5.5c1.1,1.6,2.7,2.5,4.8,2.5c0.4,0,0.8,0,1.1-0.1
		c0.4-0.1,0.9-0.2,1.3-0.4c0.8-0.4,1.5-1,1.9-1.7V24z M198.8,19.9c-0.6,0.8-1.4,1.3-2.5,1.3c0,0-0.1,0-0.1,0c-1.1,0-2-0.5-2.6-1.6
		c-0.4-0.8-0.6-1.8-0.6-2.9c0-1.3,0.2-2.4,0.7-3.1c0.6-0.9,1.4-1.4,2.6-1.4c1.2,0,2.1,0.5,2.7,1.5c0.5,0.8,0.7,1.9,0.7,3.3
		C199.6,18.1,199.3,19.1,198.8,19.9z"/>
	<path class="st2" d="M152.8,19.7h-4c-0.2,0.5-0.5,0.9-1,1.2c-0.5,0.3-1,0.4-1.6,0.4c-0.1,0-0.2,0-0.3,0c-0.9,0-1.6-0.3-2.1-0.8
		c-0.6-0.6-0.9-1.5-1-2.8h3.1h7.1v-0.8c0-3.1-0.8-5.3-2.4-6.6c-1.2-1-2.7-1.6-4.6-1.6h-0.1c-2.8,0-4.7,1.1-6,3.1
		c-0.8,1.3-1.1,2.8-1.1,4.4c0,2.9,0.7,5,2.1,6.4c1.1,1.1,2.8,1.7,4.9,1.7c0.1,0,0.2,0,0.3,0c1.4,0,2.7-0.3,3.9-1
		C151.4,22.5,152.3,21.3,152.8,19.7z M143.8,12.8c0.5-0.5,1.2-0.8,2.1-0.8c0.8,0,1.4,0.2,1.9,0.7c0.3,0.3,0.6,0.6,0.8,1.1
		c0.2,0.4,0.3,0.9,0.3,1.4h-3h-3C143,14.1,143.3,13.3,143.8,12.8z"/>
	<rect x="182.1" y="9.1" class="st2" width="3.9" height="14.9"/>
	<path class="st2" d="M172.7,21.4c-1.1,0-2-0.2-2.5-0.6c-0.5-0.4-0.7-0.9-0.7-1.6h-4c0,1.8,0.8,3.2,2.3,4.1c1.2,0.7,2.8,1.1,4.9,1.1
		c1.6,0,3-0.3,4.1-0.9c1.6-0.9,2.4-2.3,2.4-4.2c0-1.6-0.8-2.7-2.4-3.5c-0.6-0.3-2.1-0.7-4.5-1.2c-1.6-0.4-2.4-0.9-2.4-1.4
		c0-0.4,0.2-0.8,0.4-1c0.4-0.3,1-0.5,2-0.5c1,0,1.7,0.2,2.1,0.6c0.3,0.3,0.5,0.7,0.6,1.3h3.8c0-1.9-0.8-3.2-2.3-4.1
		c-1.1-0.6-2.6-0.9-4.4-0.9c-2.1,0-3.7,0.6-4.7,1.7c-0.8,0.9-1.3,2-1.3,3.3c0,1.6,0.8,2.8,2.4,3.5c0.6,0.3,2,0.7,4.4,1.2
		c1.6,0.3,2.4,0.8,2.4,1.4c-0.1,0.4-0.3,0.8-0.6,1C174.3,21.3,173.6,21.4,172.7,21.4z"/>
	<rect x="116.7" y="9.1" class="st2" width="3.9" height="14.9"/>
	<path class="st2" d="M219.1,22.9c-0.1-0.3-0.2-0.6-0.2-0.9c0-0.3,0-0.6,0-0.9v-8c0-1.6-0.7-2.8-2.2-3.6c-1.1-0.5-2.3-0.8-3.8-0.8
		c-0.2,0-0.4,0-0.6,0v0c-1.6,0-2.8,0.3-3.7,0.9c-1.4,0.8-2.2,2.3-2.4,4.3h3.8c0-0.7,0.2-1.1,0.5-1.4c0.4-0.5,1-0.7,1.8-0.7v0h0
		c0.8,0,1.3,0.1,1.7,0.3c0.6,0.3,0.9,0.8,0.9,1.5c0,0.4-0.2,0.7-0.5,0.9c-0.2,0.1-0.5,0.2-0.9,0.3l-1.3,0.2l-2.2,0.3
		c-1.3,0.2-2.4,0.7-3.2,1.5c-0.8,0.8-1.2,1.9-1.2,3.3c0,1.4,0.5,2.5,1.4,3.3c0.8,0.7,1.9,1,3.1,1c0.8,0,1.4-0.1,2-0.3
		c0.4-0.1,0.7-0.3,1-0.5c0.6-0.2,1.1-0.7,1.8-1.4c0.1,0.7,0.2,1.3,0.4,1.7h4.2v-0.6C219.5,23.3,219.2,23.1,219.1,22.9z M215,18.6
		c0,0.9-0.3,1.6-1,2.1c-0.5,0.4-1,0.6-1.6,0.8c-0.3,0-0.5,0.1-0.8,0.1c-0.5,0-0.8-0.1-1.2-0.4c-0.4-0.3-0.6-0.8-0.6-1.4
		c0-0.8,0.3-1.3,0.8-1.6c0.3-0.3,0.9-0.5,1.7-0.6l0.1,0l1.7-0.4c0.4-0.2,0.7-0.3,0.9-0.5V18.6z"/>
	<path class="st2" d="M89,36.8c-0.5-0.7-0.9-1.2-1.4-1.6c-0.5-0.3-1-0.6-1.7-0.7c-0.4-0.1-0.8-0.1-1.2-0.1c-1.8,0-3.2,0.6-4.3,1.9
		c-1.2,1.4-1.9,3.3-1.9,5.8c0,2.2,0.5,4.1,1.5,5.5c1.1,1.6,2.7,2.5,4.8,2.5c0.4,0,0.8,0,1.1-0.1v0c0.5-0.1,0.9-0.2,1.3-0.4
		c0.8-0.4,1.5-1,1.9-1.7v1.9h3.8V29.7H89L89,36.8z M88.4,45.6c-0.6,0.8-1.4,1.3-2.5,1.3v0c0,0-0.1,0-0.1,0c-1.1,0-2-0.5-2.6-1.6
		c-0.4-0.8-0.6-1.8-0.6-2.9c0-1.3,0.2-2.4,0.7-3.1c0.6-0.9,1.4-1.4,2.6-1.4c1.2,0,2.1,0.5,2.7,1.5c0.5,0.8,0.7,1.9,0.7,3.3
		C89.2,43.9,88.9,44.8,88.4,45.6z"/>
	<path class="st2" d="M186.3,36c-1.2-1-2.7-1.6-4.6-1.6h-0.1c-2.8,0-4.7,1.1-6,3.1c-0.8,1.3-1.1,2.8-1.1,4.4c0,2.9,0.7,5,2.1,6.4
		c1.2,1.1,2.8,1.7,4.9,1.7c0.1,0,0.2,0,0.3,0c1.4,0,2.7-0.3,3.9-1c1.3-0.8,2.2-2.1,2.7-3.7h-4c-0.2,0.5-0.5,0.9-1,1.2
		c-0.5,0.3-1,0.4-1.6,0.4c-0.1,0-0.2,0-0.3,0c-0.9,0-1.6-0.3-2.1-0.8c-0.6-0.6-0.9-1.5-1-2.8l3.1-0.1h7.1v-0.7
		C188.7,39.6,187.9,37.4,186.3,36z M181.6,40.9h-3c0.1-1.1,0.4-1.8,0.9-2.4c0.5-0.5,1.2-0.8,2.1-0.8c0.8,0,1.4,0.2,1.9,0.7
		c0.3,0.3,0.6,0.6,0.8,1.1s0.3,0.9,0.3,1.4H181.6z"/>
	<path class="st2" d="M107,36c-1.2-1-2.7-1.6-4.6-1.6h-0.1v0c-2.8,0-4.7,1.1-6,3.1c-0.8,1.3-1.1,2.8-1.1,4.4c0,2.9,0.7,5,2.1,6.4
		c1.2,1.1,2.8,1.7,4.9,1.7c0.1,0,0.2,0,0.3,0c1.4,0,2.7-0.3,3.9-1c1.3-0.8,2.2-2.1,2.7-3.7h-4c-0.2,0.5-0.5,0.9-1,1.2
		c-0.5,0.3-1,0.4-1.6,0.4c-0.1,0-0.2,0-0.3,0c-0.9,0-1.6-0.3-2.1-0.8c-0.6-0.6-0.9-1.5-1-2.8l3.1-0.1h7.1v-0.7
		C109.4,39.6,108.6,37.4,107,36z M102.3,40.9h-3c0.1-1,0.4-1.8,0.9-2.3c0.5-0.5,1.2-0.8,2.1-0.8v0c0.8,0,1.4,0.2,1.9,0.7
		c0.3,0.3,0.6,0.6,0.8,1.1s0.3,0.9,0.3,1.4H102.3z"/>
	<polygon class="st2" points="143.9,29.6 143.7,29.6 139.4,29.6 135,44.9 130.7,29.6 126.2,29.6 133,49.7 137,49.7 143.7,29.9 	"/>
	<rect x="112.1" y="29.6" class="st2" width="3.9" height="20.1"/>
	<rect x="168.1" y="29.6" class="st2" width="3.9" height="20.1"/>
	<path class="st2" d="M156.9,48.6c-0.1-0.3-0.2-0.6-0.2-0.9c0-0.3,0-0.6,0-0.9v-8c0-1.6-0.7-2.8-2.2-3.6c-1.1-0.5-2.3-0.8-3.8-0.8
		c-0.2,0-0.4,0-0.6,0v0c-1.6,0-2.8,0.3-3.7,0.9c-1.4,0.8-2.2,2.3-2.4,4.3h3.8c0.1-0.6,0.2-1.1,0.5-1.4c0.4-0.5,1-0.7,1.8-0.7v0h0
		c0.8,0,1.3,0.1,1.7,0.3c0.6,0.3,0.9,0.8,0.9,1.5c0,0.4-0.2,0.7-0.5,0.9c-0.2,0.1-0.5,0.2-0.9,0.3l-1.3,0.2l-2.2,0.3
		c-1.3,0.2-2.4,0.7-3.2,1.5c-0.5,0.5-0.9,1.3-1.1,2.1v0.3c0,0.3-0.1,0.6-0.1,0.9c0,0.3,0,0.6,0.1,0.8v0.2c0.2,1,0.6,1.7,1.4,2.3
		c0.8,0.7,1.9,1,3.1,1c0.8,0,1.4-0.1,2-0.3c0.4-0.1,0.7-0.3,1-0.5c0.5-0.3,1.1-0.7,1.7-1.4c0.1,0.7,0.2,1.3,0.4,1.7h4.2v-0.6
		C157.3,49,157.1,48.8,156.9,48.6z M152.8,44.3c0,0.9-0.3,1.6-1,2.1c-0.5,0.4-1,0.6-1.6,0.7c-0.3,0-0.5,0.1-0.8,0.1
		c-0.5,0-0.8-0.1-1.2-0.4c-0.4-0.3-0.6-0.8-0.6-1.4c0-0.7,0.3-1.3,0.8-1.6c0.3-0.3,0.9-0.5,1.7-0.6l0.1,0l1.7-0.4
		c0.4-0.2,0.7-0.3,0.9-0.5V44.3z"/>
	<rect x="160.3" y="29.6" class="st2" width="3.9" height="20.1"/>
</g>
</svg>
