<?xml version="1.0" encoding="utf-8"?>
<!-- Generator: Adobe Illustrator 23.0.0, SVG Export Plug-In . SVG Version: 6.00 Build 0)  -->
<svg version="1.1" id="Capa_1" xmlns="http://www.w3.org/2000/svg" xmlns:xlink="http://www.w3.org/1999/xlink" x="0px" y="0px"
	 viewBox="0 0 1024 286" style="enable-background:new 0 0 1024 286;" xml:space="preserve">
<style type="text/css">
	.st0{fill:#50465A;}
	.st1{fill:#007297;}
	.st2{fill:#FFA400;}
	.st3{fill:#3BBFAD;}
</style>
<g>
	<g>
		<path class="st0" d="M1017.6,21.9c-5.8-5.5-13.8-8.3-23.7-8.3h-1.5c-13.7,0-23.1,4.7-27.7,14c0,0.1-0.1,0.1-0.1,0.2l-69.2,153.6
			L826,27.7c0-0.1,0-0.1-0.1-0.2c-4.7-9.3-14.1-14-28-14h-1.5c-9.8,0-17.7,2.8-23.7,8.2c0,0,0,0,0,0c-4.1,3.8-6.1,8.1-6.1,12.7
			c0,2.6,0.7,5.3,2.1,8l86.6,184.1c0.1,0.1,0.1,0.2,0.2,0.3c7.4,12.4,20.7,18.8,39.7,18.8c19.1,0,32.5-6.3,39.7-18.8
			c0.1-0.1,0.1-0.2,0.2-0.3l86.8-184.1c1.4-2.7,2.1-5.3,2.1-7.8C1024,30.1,1021.9,25.8,1017.6,21.9z"/>
		<path class="st0" d="M234.9,218.5c0.1-5-2-12-12.3-17.2c-5.1-2.7-10.7-4.1-16.7-4.1c-2.5,0-5,0.1-7.7,0.5
			c-9.3,1.3-18.8,1.9-28.2,1.8c-30.7-0.4-57.1-7.8-78.5-22.1c-21.2-14.2-31.3-30.6-31.1-50.1c0.2-19.5,10.8-35.6,32.4-49.3
			c21.8-13.8,48.4-20.7,79-20.3c9.4,0.1,18.9,1,28.2,2.7c2.6,0.4,5.2,0.7,7.7,0.7c6,0.1,11.7-1.2,16.8-3.7
			c8.3-4.1,12.6-9.7,12.7-16.8l0-0.4c0.1-7.5-3.8-17.1-22.7-20.6c0,0,0,0,0,0c-13.7-2.4-27.8-3.8-42.1-3.9
			c-46.6-0.6-87.1,9.9-120.5,31.1C17.8,68.2,0.4,95.1,0,126.5c-0.4,31.4,16.3,58.7,49.7,81.1c32.8,22.1,73.1,33.6,119.7,34.2
			c1.1,0,2.3,0,3.4,0c13.1,0,26.1-1,38.8-2.9c19-3,23.2-12.6,23.3-20.2L234.9,218.5z"/>
		<path class="st0" d="M751.8,71.3H649.3c-0.7,0-1.4,0.1-2,0.3c-10.3,3.4-17.1,13.2-16.6,23.9c0.5,9.7,7.2,18.2,16.6,21.3
			c0.6,0.2,1.3,0.3,2,0.3h81.9c3.6,0,6.7,2.3,9.7,6.9c2.6,4.1,4.1,8.5,4.5,13.4c-4.4-2-9.1-3.1-14.2-3.1h-59c0,0-0.1,0-0.1,0
			c-4.7,0.2-9.3,1.1-13.7,2.8c-2.7,1-9.8,4.2-16.2,11c-9.1,9.6-11.5,21-12.2,26.9c0,0.1,0,0.2,0,0.2c0,0.1,0,0.3,0,0.3
			c0,0.4-0.2,2.4-0.8,10.6c0,0.2,0,0.3,0,0.5c0.3,7.8,1.8,15.6,4.2,22.9c1.4,4.1,3.1,8.1,5,11.9c2.1,4.6,6,10.8,13.2,14.7
			c3.8,2.1,7.5,2.9,8.9,3.2c2.8,0.6,5.7,1,8.5,1c1.1,0,2.2,0,3.4-0.1h79.4c11.8,0,21.4-5.1,28.5-15.3c6.7-9.8,10.1-22.8,10.2-38.7
			c0,0,0,0,0,0v-57.8c0-15.1-3.7-28.4-10.9-39.5C771.9,77.3,762.6,71.3,751.8,71.3z M732,171.6c0.1,0,0.3,0,0.4,0
			c3.6,0,6.6,0.8,9.1,2.2c2.3,1.4,3.7,2.9,4.5,4.7c0.3,0.8,0.6,2,0.6,3.6l0,0.5c0.2,3.9,0.4,7.6-1.6,9.8c-1.4,1.5-3.4,2.1-6.7,2.9
			c-2,0.5-4,0.7-6.1,0.7c0,0-0.1,0-0.1,0l-34.8,0c-11.3-0.5-15.3-2-15.9-2.2c-1.4-0.9-3.5-2.3-4.8-5c-0.6-1.3-1-2.8-1-4.3l0.2-3.7
			c0.4-1.9,1.1-3.5,2.2-4.8c0,0,1.8-2.1,4.7-3.4C686.4,170.9,702.5,169.3,732,171.6z"/>
		<path class="st0" d="M618.1,207.7c-6-3.7-13.1-5.5-21.3-5.5h-63.1c-6.8,0-12.7-1.4-17.4-4.2c-6-3.6-6-7.1-6-8.2V72.7l14.2-7.5
			c5.2,6.8,13.1,11.2,22,11.3c0.2,0,0.3,0,0.5,0c15.7,0,28.6-13.1,28.9-29.5c0.3-16.6-12.4-30.3-28.3-30.6
			c-7.7-0.1-15.1,2.9-20.6,8.5c-5.5,5.6-8.6,13-8.7,21c0,2.3,0.2,4.6,0.6,6.8l-8.6,4.6V42c0-6.1-3.4-11.2-10.2-15.3
			c-6.1-3.6-13.3-5.4-21.5-5.4H478c-8.2,0-15.4,1.8-21.5,5.4c-6.8,4.1-10.2,9.2-10.2,15.2v49.1l-29.8,15.8
			c-3.2-3.9-6.8-7.6-10.9-11.1c-18.8-16.4-41.7-24.7-68.1-24.7c-12.4,0-24,1.8-34.8,5.4l-9.6-17.6c7.3-5.9,12-14.9,12.2-25.1
			c0.3-18.2-14.2-33.3-32.4-33.6c-18.2-0.3-33.3,14.2-33.6,32.4c-0.3,18.2,14.2,33.3,32.4,33.6c0.2,0,0.4,0,0.6,0
			c3,0,5.9-0.4,8.7-1.2l9.1,16.7c-7.4,3.7-14.3,8.4-20.7,14c-13,11.3-21.6,24.4-25.7,39l-33.9-4.3c-1.2-8.2-8.2-14.6-16.7-14.8
			c-9.5-0.2-17.4,7.4-17.5,16.9c-0.2,9.5,7.4,17.4,16.9,17.5c0.1,0,0.2,0,0.3,0c4.5,0,8.7-1.7,11.9-4.8c0.5-0.5,1-1,1.4-1.5
			l35.1,4.4c-0.2,2.5-0.4,5.1-0.4,7.7c0,23.4,9.6,43.6,28.6,60.1c2.7,2.3,5.4,4.5,8.3,6.5l-11.4,14.7c-3-1.1-6.2-1.8-9.6-1.8
			c-14.4,0-26.1,11.3-26.1,25.2c0,13.9,11.7,25.2,26.1,25.2c14.4,0,26.1-11.3,26.1-25.2c0-5.8-2-11.1-5.4-15.4l12.2-15.6
			c14.3,7.3,30.4,11.1,48.1,11.1c20,0,38-4.8,53.7-14.2l9.8,11c-1.2,2.4-2,5.2-2,8.1c-0.1,5,1.8,9.7,5.2,13.3
			c3.5,3.6,8.1,5.6,13.1,5.7c0.1,0,0.2,0,0.3,0c4.9,0,9.5-1.9,13-5.2c3.6-3.5,5.6-8.1,5.7-13.1c0.2-10.3-8.1-18.9-18.4-19
			c-2.4,0-4.7,0.4-6.8,1.2l-8.7-9.8c1.1-0.9,2.1-1.7,3.1-2.6c19-16.5,28.6-36.7,28.6-60.1c0-13.7-3.3-26.3-9.8-37.7l22-11.6v83.1
			c0,15.3,8.7,28.3,25.8,38.9c16.5,10.2,36.6,15.3,59.7,15.3h65c8.1,0,15.3-1.9,21.3-5.5c8.3-4.8,10-10.9,10-15.1v-0.3
			C628.1,216.9,624.7,211.7,618.1,207.7z M368.2,147.8l14.8-7.8c2.4,5,3.6,10.4,3.6,16.3c0,11.5-4.5,21.1-13.7,29.3l-10.2-11.4
			c3.9-5.1,6.2-11.4,6.4-18.3C369.2,153.1,368.9,150.4,368.2,147.8z M309.3,143.1l-18-2.3c2.3-5.3,5.9-10.1,10.9-14.4
			c2.7-2.4,5.6-4.4,8.7-6.1l6.4,11.7C313.8,135,311.1,138.8,309.3,143.1z M288.2,156.3c0-0.7,0-1.4,0.1-2.1l18.6,2.3
			c0.3,7.2,3,13.8,7.4,18.9l-9.7,12.5c-0.8-0.6-1.5-1.2-2.2-1.8C292.8,177.7,288.2,168,288.2,156.3z M337.4,186.5c0.2,0,0.4,0,0.6,0
			c5.2,0,10.1-1.3,14.4-3.5l9.3,10.4c-7.2,3.6-15.2,5.3-24.2,5.3c-7.6,0-14.6-1.3-21-3.9l8.7-11.1
			C328.8,185.4,333,186.4,337.4,186.5z M338.5,124.1c-3.2-0.1-6.4,0.4-9.3,1.3l-5.5-10c4.3-1,8.9-1.6,13.7-1.6
			c13.8,0,25.3,4.1,35,12.6c0.9,0.8,1.8,1.6,2.6,2.4l-12.9,6.8C356.5,128.7,348,124.3,338.5,124.1z"/>
	</g>
	<g>
		<path class="st1" d="M1013.2,23.1c-5.1-4.8-12.1-7.2-21-7.2h-1.5c-12.1,0-20.2,3.9-24.2,11.8l-72.9,161.7L820.6,27.7
			c-4-7.8-12.1-11.8-24.4-11.8h-1.5c-8.8,0-15.8,2.4-21,7.2c-3.3,3.1-4.9,6.3-4.9,9.8c0,2,0.6,4.1,1.7,6.2l86.7,184.2
			c6.6,11.2,18.7,16.8,36.2,16.8c17.7,0,29.7-5.6,36.2-16.8L1016.6,39c1.1-2.1,1.7-4.1,1.7-6C1018.3,29.5,1016.6,26.2,1013.2,23.1z"
			/>
		<path class="st1" d="M750.1,73.6H647.6c-0.3,0-0.5,0-0.8,0.1c-8.6,2.9-14.3,11.1-13.8,19.8c0.4,8,5.9,15.1,13.8,17.7
			c0.2,0.1,0.5,0.1,0.8,0.1h81.9c5,0,9.4,2.9,13.1,8.7c3.5,5.4,5.2,11.4,5.2,18.2v0.1c0,1.9-2,3-3.7,2.1c-4.4-2.5-9.3-3.8-14.6-3.8
			h-59c-3,0.1-7.4,0.6-12.4,2.5c-1.5,0.6-8.4,3.3-14.7,10c-8.8,9.3-10.6,20.3-11.1,24.6c0,0,0,0,0,0.1c0,0.1,0,0.2,0,0.2
			c0,0.1-0.3,3.4-0.8,10.8c0.3,5.9,1.2,13.5,4,21.8c1.5,4.3,3.1,8.2,4.8,11.4l0,0c1.4,3.1,4.8,9.2,11.5,12.9
			c3.2,1.8,6.4,2.5,7.9,2.9c4.4,1,8.3,1,10.8,0.7h79.6c10.5,0,18.9-4.5,25.2-13.5c6.2-9.1,9.4-21.3,9.5-36.5v-57.8
			c0-14.4-3.4-26.8-10.3-37.3C767.6,78.9,759.4,73.6,750.1,73.6z M746.4,193.5c-2.2,2.5-5.3,3.3-8.7,4.1c-2.9,0.7-5.4,0.8-7.2,0.8
			c-11.6,0-23.3,0-34.9,0c-14.2-0.7-17.8-2.7-17.8-2.7c-1.6-1-4.7-2.9-6.5-6.8c-1.1-2.4-1.4-4.6-1.4-6c0-0.1,0-0.1,0-0.2
			c0.1-1.3,0.1-2.6,0.2-3.9c0-0.1,0-0.2,0-0.3c0.3-1.7,1.1-4.3,3-6.7c0,0,2.2-2.8,6.1-4.6c5.5-2.5,25-3.4,51.2-1.4c0,0,0.1,0,0.1,0
			c4.4,0,8.1,0.9,11.1,2.8c3,1.8,5,4,6.1,6.6c0.3,0.7,0.8,2.1,1,4.9C749.2,184.8,749.6,189.9,746.4,193.5z"/>
		<path class="st1" d="M211.9,21.7c-13.5-2.4-27.3-3.7-41.4-3.9c-46-0.6-85.4,9.6-118.3,30.5C19.3,69.2,2.7,94.7,2.3,124.8
			c-0.4,30.1,15.6,56,47.9,77.7c32.3,21.7,71.5,32.9,117.5,33.5c14.1,0.2,27.9-0.8,41.5-2.8c13.1-2.1,19.8-7.5,19.9-16.2l0-0.3
			c0.1-5.6-3.3-10.1-10.1-13.5c-4.5-2.4-9.5-3.6-14.9-3.7c-2.3,0-4.6,0.1-7.1,0.5c-9.6,1.4-19.2,2-28.9,1.9
			c-31.6-0.4-58.5-8-80.7-22.8c-22.2-14.9-33.1-32.7-32.9-53.5c0.3-20.8,11.7-38.3,34.2-52.7c22.5-14.3,49.6-21.3,81.2-20.9
			c9.7,0.1,19.3,1,28.8,2.7c2.4,0.4,4.8,0.6,7,0.6c5.4,0.1,10.4-1,15-3.3c6.9-3.4,10.4-7.8,10.4-13.3l0-0.4
			C231.5,29.6,225,24.1,211.9,21.7z"/>
		<path class="st1" d="M614.3,209.4c-5.4-3.3-11.8-4.9-19.2-4.9H532c-7.6,0-14.1-1.6-19.4-4.8c-5.3-3.2-8-7.1-8-11.7V40.3
			c0-4.6-2.7-8.5-8.2-11.8c-5.5-3.2-12-4.8-19.4-4.8h-0.7c-7.5,0-13.9,1.6-19.4,4.8c-5.5,3.3-8.2,7.2-8.2,11.8v147.6
			c0,13.8,8,25.7,23.9,35.5c15.9,9.8,35.1,14.7,57.6,14.7h65c7.4,0,13.8-1.6,19.2-4.9c5.4-3.1,8-7,8-11.7v-0.3
			C622.3,216.6,619.6,212.7,614.3,209.4z"/>
		<path class="st1" d="M297.9,187.4c-10.3-9.1-15.4-20-15.4-32.8c0-12.9,5.1-23.9,15.4-33c3.1-2.7,6.5-5,10-6.9l-17.1-31.4
			c-7.3,3.6-14.2,8.2-20.6,13.8c-12.7,11.1-20.9,23.7-24.7,37.9c-1.2,4.3-1.9,8.8-2.2,13.5c-0.1,1.9-0.2,3.8-0.2,5.7
			c0,22.3,9.1,41.3,27.2,57.1c3.3,2.8,6.6,5.4,10.1,7.7l21.9-28.1C300.7,189.8,299.3,188.6,297.9,187.4z"/>
		<path class="st1" d="M335.7,108c14.7,0,27.2,4.5,37.7,13.6c1.9,1.7,3.7,3.5,5.3,5.3l34-18c-3.3-4.1-7.1-8.1-11.4-11.9
			c-18.1-15.8-40-23.7-65.5-23.7c-11.5,0-22.2,1.6-32.1,4.8l17.2,31.6C325.4,108.6,330.4,108,335.7,108z"/>
		<path class="st1" d="M385.8,138.5c2.1,5,3.1,10.3,3.1,16.1c0,12.5-5,23.2-14.9,32.2c-0.2,0.2-0.4,0.4-0.7,0.6
			c-3.3,2.9-6.8,5.3-10.6,7.3c-8,4.2-17.1,6.3-27.1,6.3c-7.7,0-14.7-1.2-21.2-3.7l-22.1,28.4c13,6.1,27.5,9.2,43.3,9.2
			c25.5,0,47.4-7.9,65.5-23.7c18.1-15.8,27.2-34.8,27.2-57.1c0-12.2-2.7-23.5-8.2-33.8L385.8,138.5z"/>
	</g>
	<g>
		<path class="st2" d="M268.4,238.2c1.7,0.8,3.3,1.9,4.8,3l47-60.3c-1.5-1.1-3-2.3-4.3-3.6L268.4,238.2z"/>
		<path class="st2" d="M284.3,64l35.7,65.8c1.5-1.1,3.2-2,4.9-2.8l-35.6-65.5C287.8,62.5,286.1,63.3,284.3,64z"/>
		<path class="st2" d="M208.7,139.1l33.6,4.3c0.3-1.9,0.7-3.7,1.1-5.5l-33.6-4.3C209.7,135.5,209.4,137.3,208.7,139.1z"/>
		<path class="st2" d="M290.9,143.8c-0.6,1.8-1.1,3.6-1.5,5.5l17.6,2.2c0.2-1.9,0.6-3.7,1.2-5.5L290.9,143.8z"/>
		<path class="st2" d="M355.7,180.9l9.9,11.1c1.6-1,3.2-2,4.7-3.2L360,177.3C358.7,178.6,357.3,179.8,355.7,180.9z"/>
		<path class="st2" d="M395,225l8.1,9.1c1.2-1.5,2.6-2.7,4.2-3.8l-7.6-8.6C398.1,222.9,396.6,223.9,395,225z"/>
		<path class="st2" d="M366.4,142.5l79.9-42.2v-6.4l-82.7,43.7C364.7,139.1,365.6,140.8,366.4,142.5z"/>
		<path class="st2" d="M519.5,55.2l-9.2,4.9v6.4l11.3-6C520.8,58.8,520.1,57.1,519.5,55.2z"/>
		<circle class="st2" cx="336.8" cy="154.1" r="29"/>
		<ellipse class="st2" cx="255.4" cy="259.4" rx="23.6" ry="22.7"/>
		<circle class="st2" cx="271.1" cy="32.1" r="31.1"/>
		<ellipse class="st2" cx="546" cy="45.4" rx="26.6" ry="27.8"/>
		<circle class="st2" cx="416.4" cy="244.8" r="15.7"/>
		<circle class="st2" cx="191.5" cy="131.7" r="14.1"/>
	</g>
	<g>
		<ellipse class="st3" cx="255.4" cy="259.4" rx="21.4" ry="20.6"/>
		<circle class="st3" cx="271.1" cy="32.1" r="27.9"/>
		<circle class="st3" cx="336.8" cy="154.1" r="26.1"/>
		
			<ellipse transform="matrix(1.777685e-02 -0.9998 0.9998 1.777685e-02 490.9279 590.4496)" class="st3" cx="546" cy="45.4" rx="25.1" ry="23.9"/>
		<circle class="st3" cx="191.5" cy="131.7" r="12.5"/>
		<circle class="st3" cx="416.4" cy="244.8" r="14.1"/>
	</g>
</g>
</svg>
